<?xml version="1.0" encoding="UTF-8"?>
<svg version="1.1" xmlns="http://www.w3.org/2000/svg" width="402" height="107">
<path d="M0 0 C3.00056084 -0.08166849 5.9988539 -0.14081551 9 -0.1875 C9.83917969 -0.21263672 10.67835937 -0.23777344 11.54296875 -0.26367188 C17.38441406 -0.33159566 21.71906393 0.42554367 27 3 C27.33 3.99 27.66 4.98 28 6 C28.66 6 29.32 6 30 6 C31.64107247 8.89111501 32.25192244 10.97401617 32.27124023 14.2902832 C32.28142685 15.12827957 32.29161346 15.96627594 32.30210876 16.82966614 C32.30424881 17.72763412 32.30638885 18.62560211 32.30859375 19.55078125 C32.33375813 21.46549778 32.35915609 23.38021125 32.38476562 25.29492188 C32.4134682 28.30329566 32.43749448 31.31161627 32.45629883 34.32006836 C32.47803516 37.23058729 32.5174844 40.1404807 32.55859375 43.05078125 C32.55870956 43.94267654 32.55882538 44.83457184 32.5589447 45.75349426 C32.65649838 51.95137518 33.34714896 57.25741193 37.84765625 61.91015625 C42.01305943 64.01931684 46.46691458 63.60530814 51 63 C55.18685518 60.69295735 56.60383415 58.47876309 58 54 C58.18622194 51.20186396 58.27711411 48.49602248 58.2734375 45.69921875 C58.29373137 44.06574842 58.31458225 42.43228493 58.3359375 40.79882812 C58.35848085 38.24481409 58.37499179 35.69107169 58.38085938 33.13696289 C58.39044753 30.65722521 58.42429923 28.17868462 58.4609375 25.69921875 C58.45589203 24.94686447 58.45084656 24.19451019 58.44564819 23.4193573 C58.56590552 16.85464976 60.57984645 11.56777845 65.11328125 6.7578125 C71.60841285 1.93549454 76.55135516 -0.08965763 84.7265625 -0.03515625 C85.71479004 -0.03008057 86.70301758 -0.02500488 87.72119141 -0.01977539 C88.84920166 -0.00998657 88.84920166 -0.00998657 90 0 C90.1020663 7.7554185 90.17174376 15.51066147 90.21972656 23.26660156 C90.23974608 25.90078199 90.26697002 28.53491852 90.30175781 31.16894531 C90.35070096 34.97211594 90.37306657 38.77469506 90.390625 42.578125 C90.41127014 43.74112122 90.43191528 44.90411743 90.45318604 46.10235596 C90.45687531 59.7819536 85.99306577 70.82710573 76.625 80.75 C66.30244254 90.48783743 54.38722886 93.65742648 40.44116211 93.54052734 C27.74770415 93.07239982 17.7427187 88.07784388 9.03515625 78.9375 C0.76355431 69.1444829 -0.59245326 59.07121337 -0.390625 46.58203125 C-0.38314395 45.23012641 -0.37745986 43.87821056 -0.37347412 42.52629089 C-0.3583638 39.00634638 -0.31921364 35.48708568 -0.2746582 31.96740723 C-0.23338534 28.36052698 -0.21539555 24.75353382 -0.1953125 21.14648438 C-0.15270068 14.0973803 -0.08463261 7.04873532 0 0 Z " fill="#D9103D" transform="translate(5,3)"/>
<path d="M0 0 C0.66 0 1.32 0 2 0 C3.02078528 11.48383435 -3.05426504 20.38538136 -10 29 C-10.495 29.495 -10.495 29.495 -11 30 C-3.88342564 28.9312565 3.22017261 27.80459204 10.31640625 26.609375 C43.37326719 21.07739829 76.5123747 15.97357551 109.95703125 13.4921875 C114.27908497 13.16479404 118.58459719 12.73611199 122.8946991 12.2824707 C133.92057466 11.13070524 144.92543061 10.35888084 156 9.875 C156.94056244 9.83297455 157.88112488 9.7909491 158.85018921 9.74765015 C177.43537134 8.94671807 196.01533318 8.81158756 214.61444092 8.81241608 C216.76713205 8.81249827 218.91981916 8.81114362 221.07250977 8.80975342 C241.73077668 8.80494176 262.3549555 9.26728489 283 10 C282.67 10.99 282.34 11.98 282 13 C281.32113235 13.00586624 280.64226471 13.01173248 279.94282532 13.01777649 C248.04418651 13.30419758 216.17701201 13.81464861 184.3125 15.375 C183.09680328 15.43217194 181.88110657 15.48934387 180.62857056 15.54824829 C164.58745717 16.31466627 148.65642901 17.61977417 132.69018555 19.31542969 C126.63356222 19.95374124 120.57449605 20.44448151 114.5 20.875 C99.02191835 22.06972852 83.6543073 24.31280761 68.27929688 26.41699219 C64.6929494 26.90729616 61.10494454 27.38344089 57.515625 27.8515625 C45.5191008 29.42484262 33.59729786 31.34237714 21.67089844 33.37597656 C14.9249997 34.52272551 8.17632005 35.65284067 1.42730713 36.78109741 C-0.95383147 37.17977003 -3.33459236 37.58064244 -5.71533203 37.98168945 C-7.2060384 38.23137983 -8.69676038 38.48097701 -10.1875 38.73046875 C-10.85748016 38.8438559 -11.52746033 38.95724304 -12.21774292 39.07406616 C-24.63182862 41.14350134 -24.63182862 41.14350134 -30.5 41.09765625 C-31.24121094 41.09443359 -31.98242188 41.09121094 -32.74609375 41.08789062 C-33.86177734 41.07532227 -33.86177734 41.07532227 -35 41.0625 C-36.16208984 41.05573242 -36.16208984 41.05573242 -37.34765625 41.04882812 C-39.23180524 41.03719758 -41.11591365 41.01926906 -43 41 C-43.33 40.34 -43.66 39.68 -44 39 C-43.07960937 38.74347656 -42.15921875 38.48695312 -41.2109375 38.22265625 C-27.09073286 34.04787264 -13.76445874 27.29271654 -6.32421875 14.0078125 C-3.97631567 9.42407808 -1.8686965 4.79895297 0 0 Z " fill="#1E85BF" transform="translate(101,60)"/>
<path d="M0 0 C0.98822754 0.00507568 1.97645508 0.01015137 2.99462891 0.01538086 C4.12263916 0.02516968 4.12263916 0.02516968 5.2734375 0.03515625 C5.30235296 4.49347607 5.32020731 8.95177194 5.3359375 13.41015625 C5.34431641 14.68117188 5.35269531 15.9521875 5.36132812 17.26171875 C5.36455078 18.4734375 5.36777344 19.68515625 5.37109375 20.93359375 C5.37633057 22.05427246 5.38156738 23.17495117 5.38696289 24.32958984 C5.2734375 27.03515625 5.2734375 27.03515625 4.2734375 29.03515625 C4.06305485 30.83694825 3.85661179 32.6393639 3.67797852 34.44458008 C2.80776249 43.07724053 1.71397842 50.73616568 -4.7265625 57.03515625 C-4.9946875 57.67453125 -5.2628125 58.31390625 -5.5390625 58.97265625 C-7.31140536 62.05093596 -9.66827719 63.32251648 -12.7265625 65.03515625 C-14.0465625 65.03515625 -15.3665625 65.03515625 -16.7265625 65.03515625 C-16.7265625 66.35515625 -16.7265625 67.67515625 -16.7265625 69.03515625 C-18.59912667 69.54420282 -20.47475591 70.0419808 -22.3515625 70.53515625 C-23.39570312 70.81359375 -24.43984375 71.09203125 -25.515625 71.37890625 C-28.72976961 72.03581172 -31.45821565 72.29149718 -34.7265625 72.03515625 C-35.7165625 71.37515625 -36.7065625 70.71515625 -37.7265625 70.03515625 C-37.3965625 69.04515625 -37.0665625 68.05515625 -36.7265625 67.03515625 C-34.05989583 67.03515625 -31.39322917 67.03515625 -28.7265625 67.03515625 C-28.7265625 65.71515625 -28.7265625 64.39515625 -28.7265625 63.03515625 C-29.7165625 62.70515625 -30.7065625 62.37515625 -31.7265625 62.03515625 C-31.0871875 61.27203125 -30.4478125 60.50890625 -29.7890625 59.72265625 C-26.37548601 55.27466264 -26.57990351 51.30582622 -26.55078125 45.9296875 C-26.52757091 44.28970088 -26.5034531 42.64972689 -26.47851562 41.00976562 C-26.44351612 38.43375329 -26.4141177 35.85820275 -26.40063477 33.28198242 C-26.38504603 30.78898455 -26.34476025 28.29732607 -26.30078125 25.8046875 C-26.30268967 25.04605911 -26.30459808 24.28743073 -26.30656433 23.5058136 C-26.15798387 16.92431174 -24.1613711 11.61848367 -19.61328125 6.79296875 C-13.11814965 1.97065079 -8.17520734 -0.05450138 0 0 Z " fill="#F02A51" transform="translate(89.7265625,2.96484375)"/>
<path d="M0 0 C2 1 2 1 2.8515625 3.50390625 C3.10679687 4.51324219 3.36203125 5.52257813 3.625 6.5625 C3.88539063 7.57441406 4.14578125 8.58632813 4.4140625 9.62890625 C4.60742188 10.41136719 4.80078125 11.19382812 5 12 C5.27714844 11.21753906 5.55429687 10.43507813 5.83984375 9.62890625 C6.20207031 8.61699219 6.56429688 7.60507812 6.9375 6.5625 C7.29714844 5.55316406 7.65679687 4.54382812 8.02734375 3.50390625 C9 1 9 1 10 0 C12.9375 -0.1875 12.9375 -0.1875 16 0 C18.34914492 2.34914492 18.73140357 3.95679446 19.625 7.125 C20.01558594 8.49011719 20.01558594 8.49011719 20.4140625 9.8828125 C20.70410156 10.93082031 20.70410156 10.93082031 21 12 C21.27714844 11.21753906 21.55429687 10.43507813 21.83984375 9.62890625 C22.20207031 8.61699219 22.56429688 7.60507812 22.9375 6.5625 C23.29714844 5.55316406 23.65679687 4.54382812 24.02734375 3.50390625 C25 1 25 1 26 0 C29.36629251 -0.14636054 31.78419562 -0.07193479 35 1 C36.34144686 0.70098628 37.67474731 0.36413485 39 0 C48.91591592 -0.76276276 48.91591592 -0.76276276 53 2 C55.79266963 7.29527937 56.42467373 11.44701039 56.25 17.375 C56.24484375 18.09816406 56.2396875 18.82132813 56.234375 19.56640625 C56.15514881 24.84485119 56.15514881 24.84485119 55 26 C52.70418219 26.07188471 50.42482931 25.99646432 48.12890625 25.9375 C45.94497784 25.85218862 45.94497784 25.85218862 44 27 C39.87720492 27.27485301 36.4958575 27.33057166 33 25 C31.70209718 22.37469656 31.11784498 19.92367784 31 17 C32.51035801 13.34334375 33.68757303 12.20828464 37 10 C39.48046875 9.8046875 39.48046875 9.8046875 42.1875 9.875 C43.08855469 9.89304687 43.98960937 9.91109375 44.91796875 9.9296875 C45.60503906 9.95289063 46.29210937 9.97609375 47 10 C46.505 9.01 46.505 9.01 46 8 C40.42169984 7.87530901 40.42169984 7.87530901 35 9 C34.34 8.01 33.68 7.02 33 6 C32.82984375 6.52207031 32.6596875 7.04414062 32.484375 7.58203125 C30.44759342 13.7682136 28.25037295 19.88858108 26 26 C23.03 26 20.06 26 17 26 C15.68 22.7 14.36 19.4 13 16 C11.68 19.3 10.36 22.6 9 26 C6.03 26 3.06 26 0 26 C-0.96305013 23.3349556 -1.92051716 20.66811249 -2.875 18 C-3.14441406 17.25621094 -3.41382813 16.51242188 -3.69140625 15.74609375 C-5.42732706 10.87704757 -6.82164705 6.03374074 -8 1 C-5.26094655 -0.36952673 -3.02912668 -0.12621361 0 0 Z M41 16 C41 17.32 41 18.64 41 20 C42.65 19.67 44.3 19.34 46 19 C46.33 18.01 46.66 17.02 47 16 C45.02 16 43.04 16 41 16 Z " fill="#CC0E3E" transform="translate(305,35)"/>
<path d="M0 0 C0.70855762 -0.00052242 1.41711525 -0.00104485 2.14714432 -0.0015831 C23.51084089 -0.0161075 44.83722351 0.42975543 66.1875 1.1875 C65.8575 2.1775 65.5275 3.1675 65.1875 4.1875 C64.50863235 4.19336624 63.82976471 4.19923248 63.13032532 4.20527649 C31.23168651 4.49169758 -0.63548799 5.00214861 -32.5 6.5625 C-33.71569672 6.61967194 -34.93139343 6.67684387 -36.18392944 6.73574829 C-53.32665199 7.55479935 -70.33867911 9.02683548 -87.40089417 10.83628845 C-114.71347651 13.64801254 -114.71347651 13.64801254 -127.8125 13.1875 C-127.1525 12.8575 -126.4925 12.5275 -125.8125 12.1875 C-126.1425 11.1975 -126.4725 10.2075 -126.8125 9.1875 C-123.57004945 7.28966757 -120.91658848 6.86120911 -117.1875 6.625 C-113.35528845 6.44411545 -113.35528845 6.44411545 -109.8125 5.1875 C-73.80931559 -0.76825065 -36.37000508 0.00598542 0 0 Z " fill="#DC5C77" transform="translate(317.8125,68.8125)"/>
<path d="M0 0 C7.06588973 0.07747686 13.00305645 0.29147449 19.0625 4.125 C21.94192989 8.67635693 22.03562054 12.94615332 21 18.1875 C18.4375 21.125 18.4375 21.125 16 23.1875 C16.04497842 25.46273089 16.04497842 25.46273089 17 27.1875 C17.66 27.1875 18.32 27.1875 19 27.1875 C23 33.9375 23 33.9375 23 36.1875 C19.49298162 36.81127797 16.47690404 37.05672601 13 36.1875 C10.01854634 32.97312027 7 28.71413386 7 24.1875 C5.02 24.1875 3.04 24.1875 1 24.1875 C1 28.1475 1 32.1075 1 36.1875 C-1.64 36.1875 -4.28 36.1875 -7 36.1875 C-7.02465098 31.22127651 -7.04283649 26.25508834 -7.05493164 21.28881836 C-7.0599719 19.59805684 -7.06680405 17.90729971 -7.07543945 16.21655273 C-7.08751857 13.79149293 -7.09323123 11.36649056 -7.09765625 8.94140625 C-7.10281754 8.18098526 -7.10797882 7.42056427 -7.11329651 6.63710022 C-7.11349238 4.8201743 -7.06197277 3.00336873 -7 1.1875 C-5.18433329 -0.62816671 -2.44301931 0.01413784 0 0 Z M1 8.1875 C1 10.8275 1 13.4675 1 16.1875 C2.64574566 16.21438151 4.29161413 16.23384123 5.9375 16.25 C7.31228516 16.26740234 7.31228516 16.26740234 8.71484375 16.28515625 C10.96593327 16.44699049 10.96593327 16.44699049 12 15.1875 C12.04080783 13.18791636 12.04254356 11.18704746 12 9.1875 C9.59454362 7.98477181 8.05003047 8.08678528 5.375 8.125 C4.55773437 8.13402344 3.74046875 8.14304687 2.8984375 8.15234375 C2.27195313 8.16394531 1.64546875 8.17554688 1 8.1875 Z " fill="#161D33" transform="translate(157,24.8125)"/>
<path d="M0 0 C0.64995297 1.41478135 1.29478722 2.83191487 1.9375 4.25 C2.29714844 5.03890625 2.65679687 5.8278125 3.02734375 6.640625 C3.90033279 8.75823698 4.51338508 10.76669362 5 13 C5.15855469 12.22914062 5.31710938 11.45828125 5.48046875 10.6640625 C5.71378906 9.66117188 5.94710937 8.65828125 6.1875 7.625 C6.40792969 6.62726562 6.62835938 5.62953125 6.85546875 4.6015625 C8 2 8 2 10.36328125 0.5859375 C14.49575071 -0.33238905 14.49575071 -0.33238905 17 1 C18.265625 3.50390625 18.265625 3.50390625 19.25 6.5625 C19.58515625 7.57441406 19.9203125 8.58632813 20.265625 9.62890625 C20.62914062 10.80259766 20.62914062 10.80259766 21 12 C21.20496094 11.21753906 21.40992188 10.43507813 21.62109375 9.62890625 C21.89050781 8.61699219 22.15992188 7.60507812 22.4375 6.5625 C22.70433594 5.55316406 22.97117188 4.54382812 23.24609375 3.50390625 C24 1 24 1 25 0 C30.52941176 -0.23529412 30.52941176 -0.23529412 33 1 C27.80555556 23.19444444 27.80555556 23.19444444 25 26 C19.1589404 26.37086093 19.1589404 26.37086093 17 26 C14.54176828 22.31265242 13.98757384 19.30300029 13 15 C11.68 18.63 10.36 22.26 9 26 C6.03 26 3.06 26 0 26 C-1.33834986 22.21008507 -2.66982663 18.41779164 -4 14.625 C-4.3815625 13.54476562 -4.763125 12.46453125 -5.15625 11.3515625 C-5.5171875 10.3203125 -5.878125 9.2890625 -6.25 8.2265625 C-6.58515625 7.27346191 -6.9203125 6.32036133 -7.265625 5.33837891 C-8 3 -8 3 -8 1 C-5.29120665 -0.35439668 -2.99066732 -0.06501451 0 0 Z " fill="#262C42" transform="translate(213,35)"/>
<path d="M0 0 C1.66490245 1.66490245 1.16788104 3.70135117 1.2109375 5.98828125 C1.23929688 7.00470703 1.26765625 8.02113281 1.296875 9.06835938 C1.34867208 11.21923297 1.39302702 13.37029955 1.4296875 15.52148438 C1.460625 16.54177734 1.4915625 17.56207031 1.5234375 18.61328125 C1.54325684 19.54954346 1.56307617 20.48580566 1.58349609 21.45043945 C2.07216602 24.44175247 2.88779684 25.84580163 5 28 C8.10649064 28.45302989 10.04452712 28.68191776 12.65771484 26.81689453 C14.49721619 24.32697656 14.41454079 22.56957378 14.4765625 19.4921875 C14.5075 18.42355469 14.5384375 17.35492188 14.5703125 16.25390625 C14.58835938 15.13886719 14.60640625 14.02382813 14.625 12.875 C14.67576994 10.66396907 14.73024957 8.45301911 14.7890625 6.2421875 C14.81540771 4.77048096 14.81540771 4.77048096 14.84228516 3.26904297 C15 1 15 1 16 0 C21.52941176 -0.23529412 21.52941176 -0.23529412 24 1 C24.11719175 4.83307169 24.18758077 8.66567608 24.25 12.5 C24.30027344 14.11648437 24.30027344 14.11648437 24.3515625 15.765625 C24.43597273 22.68726354 23.76539812 27.13585538 20 33 C15.04626445 36.74550737 10.11662312 37.60716479 4 37 C-0.40830715 35.67750785 -2.47023688 34.65523334 -5.375 31.0625 C-7.67425579 26.72928716 -8.12478147 23.4606653 -8.09765625 18.578125 C-8.09443359 17.55332031 -8.09121094 16.52851562 -8.08789062 15.47265625 C-8.07951172 14.40917969 -8.07113281 13.34570312 -8.0625 12.25 C-8.05798828 11.17105469 -8.05347656 10.09210937 -8.04882812 8.98046875 C-8.03705727 6.32025617 -8.02061399 3.66015635 -8 1 C-5.26752652 -0.36623674 -3.01801098 -0.128426 0 0 Z " fill="#282F45" transform="translate(122,25)"/>
<path d="M0 0 C2.64 0 5.28 0 8 0 C8.33 3.96 8.66 7.92 9 12 C9.66 11.67 10.32 11.34 11 11 C16.25279338 10.65555453 19.82634624 10.42258249 24 14 C27.29453611 18.77139712 27.87937149 23.37202249 27 29 C25.70699455 32.67046708 24.06667341 35.33693274 20.6875 37.4375 C16.22410078 38.37169984 12.33612385 38.44537462 8 37 C5.36 37 2.72 37 0 37 C0 24.79 0 12.58 0 0 Z M9.8125 19.6875 C7.83391262 21.85424985 7.83391262 21.85424985 7.5 24.5 C8.16201241 27.81006203 9.28334436 29.03797093 12 31 C14.85296933 31 15.77019438 30.22188128 17.8125 28.25 C19.22024137 26.0453649 19.22024137 26.0453649 18.875 23.4375 C17.94193153 20.83823784 17.22015237 19.62241904 15 18 C11.93543204 17.69459827 11.93543204 17.69459827 9.8125 19.6875 Z " fill="#32394E" transform="translate(272,24)"/>
<path d="M0 0 C0.33 0 0.66 0 1 0 C1.10041887 3.91015628 1.17218019 7.81979251 1.21972656 11.73095703 C1.2492475 13.69981341 1.30012677 15.66831298 1.3515625 17.63671875 C1.49767237 32.02854051 -2.47425371 43.26287693 -12.375 53.75 C-22.71039276 63.49994567 -34.59086892 66.61037608 -48.54125977 66.55151367 C-55.98675035 66.30023987 -62.4660224 64.76302375 -69 61 C-69.33 60.34 -69.66 59.68 -70 59 C-68.5199159 59.11362262 -67.04089926 59.24122908 -65.5625 59.375 C-64.73878906 59.44460937 -63.91507813 59.51421875 -63.06640625 59.5859375 C-62.38449219 59.72257812 -61.70257813 59.85921875 -61 60 C-60.67 60.66 -60.34 61.32 -60 62 C-56.03310881 62.66323417 -52.01364131 62.78607496 -48 63 C-46.72125 63.0825 -45.4425 63.165 -44.125 63.25 C-40.48296987 62.95863759 -38.16532706 61.76669417 -35 60 C-34.34 60 -33.68 60 -33 60 C-32.505 59.01 -32.505 59.01 -32 58 C-29.98228501 56.88677794 -27.95195537 55.98078215 -25.8125 55.125 C-23.79922538 54.13720728 -23.79922538 54.13720728 -23.25 51.875 C-23.1675 51.25625 -23.085 50.6375 -23 50 C-22.38125 49.91621094 -21.7625 49.83242187 -21.125 49.74609375 C-18.86997335 49.20102702 -18.86997335 49.20102702 -17.875 47.22265625 C-17.441875 46.15337891 -17.441875 46.15337891 -17 45.0625 C-15.89727209 42.34998625 -15.4338415 41.25599839 -12.875 39.74609375 C-12.25625 39.49988281 -11.6375 39.25367188 -11 39 C-11.226875 38.278125 -11.45375 37.55625 -11.6875 36.8125 C-12.08677021 33.2190681 -11.17364926 31.81769349 -9 29 C-8.34 29 -7.68 29 -7 29 C-6.80664062 28.41992188 -6.61328125 27.83984375 -6.4140625 27.2421875 C-6.02347656 26.07042969 -6.02347656 26.07042969 -5.625 24.875 C-5.35171875 24.04355469 -5.0784375 23.21210937 -4.796875 22.35546875 C-4.20788444 20.61448194 -3.55758585 18.89396462 -2.875 17.1875 C-1.72986451 13.01593498 -1.50867324 8.91782215 -1.24609375 4.609375 C-1 2 -1 2 0 0 Z " fill="#B4032A" transform="translate(94,30)"/>
<path d="M0 0 C0 0.33 0 0.66 0 1 C-0.75925781 1.04898438 -1.51851563 1.09796875 -2.30078125 1.1484375 C-3.79158203 1.26058594 -3.79158203 1.26058594 -5.3125 1.375 C-6.79169922 1.47941406 -6.79169922 1.47941406 -8.30078125 1.5859375 C-11.21528433 1.83865472 -11.21528433 1.83865472 -14 4 C-14 4.66 -14 5.32 -14 6 C-12.68 6.66 -11.36 7.32 -10 8 C-10.82387207 8.10546143 -11.64774414 8.21092285 -12.49658203 8.31958008 C-33.06724301 10.95432744 -33.06724301 10.95432744 -53.625 13.6875 C-54.51074707 13.80649658 -55.39649414 13.92549316 -56.30908203 14.0480957 C-57.12747559 14.15984131 -57.94586914 14.27158691 -58.7890625 14.38671875 C-59.48725098 14.48170654 -60.18543945 14.57669434 -60.90478516 14.67456055 C-62.39507646 14.90604019 -63.87712498 15.19355984 -65.34985352 15.51855469 C-68.45840598 16.08327744 -71.45539163 16.21546914 -74.61328125 16.31640625 C-75.86044922 16.35830078 -77.10761719 16.40019531 -78.39257812 16.44335938 C-80.33293945 16.50233398 -80.33293945 16.50233398 -82.3125 16.5625 C-84.28186523 16.62727539 -84.28186523 16.62727539 -86.29101562 16.69335938 C-89.52724288 16.79927227 -92.76354458 16.90134885 -96 17 C-96.33 16.01 -96.66 15.02 -97 14 C-93.7 14 -90.4 14 -87 14 C-87 13.34 -87 12.68 -87 12 C-81.06 11.505 -81.06 11.505 -75 11 C-74.67 10.01 -74.34 9.02 -74 8 C-67.88439481 7.18124832 -61.76866699 6.36342032 -55.65283203 5.54638672 C-53.57955728 5.2692865 -51.50631415 4.99194956 -49.43310547 4.71435547 C-43.51770996 3.9223958 -37.60177202 3.13476219 -31.68481445 2.35455322 C-29.96704207 2.12770636 -28.24941624 1.8997452 -26.53198242 1.67034912 C-24.35518114 1.38019724 -22.17774597 1.09546091 -20 0.8125 C-18.22109375 0.57853516 -18.22109375 0.57853516 -16.40625 0.33984375 C-10.93670898 -0.20585587 -5.48904705 -0.16918296 0 0 Z " fill="#6374AD" transform="translate(206,75)"/>
<path d="M0 0 C2 1.1875 2 1.1875 4 4.1875 C4.93924093 10.74446497 5.30109124 17.56349271 5 24.1875 C4 25.1875 4 25.1875 2.00390625 25.25 C0.37890454 25.20839996 -1.24609547 25.1667335 -2.87109375 25.125 C-5.05502216 25.03968862 -5.05502216 25.03968862 -7 26.1875 C-11.99220285 26.56427003 -14.98020143 26.26146361 -19 23.1875 C-20.56935594 20.04878812 -20.35201103 17.64894178 -20 14.1875 C-17.93012418 11.11607137 -16.38120723 9.53042042 -12.734375 8.625 C-6.68589744 7.84455128 -6.68589744 7.84455128 -4 9.1875 C-4.33 8.5275 -4.66 7.8675 -5 7.1875 C-10.57830016 7.06280901 -10.57830016 7.06280901 -16 8.1875 C-18 5.1875 -18 5.1875 -18 1.1875 C-12.44197229 -1.77678144 -5.96549604 -1.61565518 0 0 Z M-11 15.1875 C-11 16.5075 -11 17.8275 -11 19.1875 C-9.35 19.1875 -7.7 19.1875 -6 19.1875 C-5.34 17.8675 -4.68 16.5475 -4 15.1875 C-6.31 15.1875 -8.62 15.1875 -11 15.1875 Z " fill="#CB0535" transform="translate(393,35.8125)"/>
<path d="M0 0 C2.7489314 1.877319 3.38942623 2.72271286 4.5625 5.75 C4.7578125 8.109375 4.7578125 8.109375 4.6875 10.5 C4.66945313 11.29921875 4.65140625 12.0984375 4.6328125 12.921875 C4.60960937 13.52515625 4.58640625 14.1284375 4.5625 14.75 C1.55936252 16.25156874 -1.22817522 15.84281204 -4.5625 15.8125 C-5.84382813 15.80347656 -7.12515625 15.79445313 -8.4453125 15.78515625 C-9.43273437 15.77355469 -10.42015625 15.76195313 -11.4375 15.75 C-9.57428996 18.04102513 -9.57428996 18.04102513 -6.625 18 C-3.47436185 17.75289113 -1.27834818 17.08686973 1.5625 15.75 C2.88418051 17.92688554 3.5756712 19.30217933 3.5 21.875 C2.5625 23.75 2.5625 23.75 0.5 25 C-6.21111628 26.7134765 -11.39567098 26.18554984 -17.4375 22.75 C-20.50400901 19.07018919 -21.27381618 15.49683072 -21.4375 10.75 C-20.03943334 6.62570334 -18.40963745 2.96981557 -15.4375 -0.25 C-10.16142215 -2.00869262 -5.21907062 -1.89784386 0 0 Z M-10.5625 6.75 C-11.18125 7.41 -11.8 8.07 -12.4375 8.75 C-9.4675 8.75 -6.4975 8.75 -3.4375 8.75 C-4.80073743 6.7100281 -4.80073743 6.7100281 -6.4375 4.75 C-8.68112573 4.5215451 -8.68112573 4.5215451 -10.5625 6.75 Z " fill="#262E42" transform="translate(265.4375,36.25)"/>
<path d="M0 0 C2 1 2 1 2.8515625 3.50390625 C3.10679687 4.51324219 3.36203125 5.52257813 3.625 6.5625 C3.88539063 7.57441406 4.14578125 8.58632813 4.4140625 9.62890625 C4.60742188 10.41136719 4.80078125 11.19382812 5 12 C5.66 10.02 6.32 8.04 7 6 C7.99 6 8.98 6 10 6 C10 4.68 10 3.36 10 2 C11.98 2 13.96 2 16 2 C16.33 4.31 16.66 6.62 17 9 C15.68 9.33 14.36 9.66 13 10 C14.4540625 10.680625 14.4540625 10.680625 15.9375 11.375 C19 13 19 13 20 15 C20.99 15.66 21.98 16.32 23 17 C23 17.66 23 18.32 23 19 C23.66 19.33 24.32 19.66 25 20 C25 21.32 25 22.64 25 24 C22.69 24 20.38 24 18 24 C18 23.34 18 22.68 18 22 C17.01 22 16.02 22 15 22 C14.34 20.02 13.68 18.04 13 16 C11.68 19.3 10.36 22.6 9 26 C6.03 26 3.06 26 0 26 C-0.96305013 23.3349556 -1.92051716 20.66811249 -2.875 18 C-3.14441406 17.25621094 -3.41382813 16.51242188 -3.69140625 15.74609375 C-5.42732706 10.87704757 -6.82164705 6.03374074 -8 1 C-5.26094655 -0.36952673 -3.02912668 -0.12621361 0 0 Z " fill="#CC1D46" transform="translate(305,35)"/>
<path d="M0 0 C3.5 0.125 3.5 0.125 4.5 1.125 C4.58767112 3.19762076 4.60695873 5.27320294 4.59765625 7.34765625 C4.59443359 8.60771484 4.59121094 9.86777344 4.58789062 11.16601562 C4.57953403 12.50651109 4.57106907 13.84700588 4.5625 15.1875 C4.5574866 16.53189942 4.55292342 17.8763006 4.54882812 19.22070312 C4.53699497 22.52215433 4.51905886 25.8235826 4.5 29.125 C9.78 29.125 15.06 29.125 20.5 29.125 C20.5 31.435 20.5 33.745 20.5 36.125 C12.25 36.125 4 36.125 -4.5 36.125 C-4.52290956 31.15871566 -4.54283643 26.19261337 -4.55493164 21.22631836 C-4.5599719 19.53555684 -4.56680405 17.84479971 -4.57543945 16.15405273 C-4.58751857 13.72899293 -4.59323123 11.30399056 -4.59765625 8.87890625 C-4.60281754 8.11848526 -4.60797882 7.35806427 -4.61329651 6.57460022 C-4.61349238 4.7576743 -4.56197277 2.94086873 -4.5 1.125 C-3.5 0.125 -3.5 0.125 0 0 Z " fill="#1B2339" transform="translate(186.5,24.875)"/>
<path d="M0 0 C-1.32 0.66 -2.64 1.32 -4 2 C-2.68 2.66 -1.36 3.32 0 4 C0 4.33 0 4.66 0 5 C-53.36579506 10.47932752 -53.36579506 10.47932752 -67 10 C-66.34 9.67 -65.68 9.34 -65 9 C-65.33 8.01 -65.66 7.02 -66 6 C-62.75754945 4.10216757 -60.10408848 3.67370911 -56.375 3.4375 C-52.54278845 3.25661545 -52.54278845 3.25661545 -49 2 C-32.92321734 -1.08476082 -16.29022755 -0.19380705 0 0 Z " fill="#A15A90" transform="translate(257,72)"/>
<path d="M0 0 C0.99 0 1.98 0 3 0 C3 0.66 3 1.32 3 2 C5.475 2.495 5.475 2.495 8 3 C8.29247143 6.71113743 8.44965382 10.29819876 8 14 C5.4375 16.9375 5.4375 16.9375 3 19 C3.04497842 21.27523089 3.04497842 21.27523089 4 23 C4.66 23 5.32 23 6 23 C10 29.75 10 29.75 10 32 C6.60020229 32.35036083 3.3885542 32.51067693 0 32 C-3.54143538 28.37218815 -4.5252771 24.98459049 -5 20 C-6.134375 19.87625 -7.26875 19.7525 -8.4375 19.625 C-9.613125 19.41875 -10.78875 19.2125 -12 19 C-12.33 18.34 -12.66 17.68 -13 17 C-14.98 17.33 -16.96 17.66 -19 18 C-18.91291331 16.54054712 -18.80473093 15.08234132 -18.6875 13.625 C-18.62949219 12.81289063 -18.57148438 12.00078125 -18.51171875 11.1640625 C-18 9 -18 9 -15 7 C-14.4465236 9.07553648 -14 10.84365964 -14 13 C-9.38 12.67 -4.76 12.34 0 12 C0 8.04 0 4.08 0 0 Z " fill="#121B32" transform="translate(170,29)"/>
<path d="M0 0 C3.5 0.125 3.5 0.125 4.5 1.125 C4.58855161 3.7912603 4.61524673 6.43147114 4.59765625 9.09765625 C4.5962413 9.89529892 4.59482635 10.69294159 4.59336853 11.51475525 C4.58775316 14.07237435 4.57519812 16.62990718 4.5625 19.1875 C4.55748698 20.91731645 4.55292373 22.64713426 4.54882812 24.37695312 C4.53777875 28.62633553 4.52050386 32.87565312 4.5 37.125 C1.53 37.125 -1.44 37.125 -4.5 37.125 C-4.5246501 32.01636104 -4.54283607 26.90775641 -4.55493164 21.79907227 C-4.55997204 20.05980832 -4.5668043 18.32054864 -4.57543945 16.58129883 C-4.58751792 14.08674063 -4.59323108 11.59223827 -4.59765625 9.09765625 C-4.60281754 8.31536148 -4.60797882 7.53306671 -4.61329651 6.72706604 C-4.61349226 4.85932886 -4.56199694 2.99170796 -4.5 1.125 C-3.5 0.125 -3.5 0.125 0 0 Z " fill="#CB4261" transform="translate(367.5,23.875)"/>
<path d="M0 0 C0.72963959 0.00141495 1.45927917 0.0028299 2.21102905 0.00428772 C4.54437335 0.00989094 6.87762214 0.0224439 9.2109375 0.03515625 C10.79166528 0.04017084 12.37239457 0.04473382 13.953125 0.04882812 C17.83076604 0.05986141 21.70833557 0.07712814 25.5859375 0.09765625 C25.2559375 1.08765625 24.9259375 2.07765625 24.5859375 3.09765625 C-35.3090625 4.08765625 -35.3090625 4.08765625 -96.4140625 5.09765625 C-95.0940625 4.43765625 -93.7740625 3.77765625 -92.4140625 3.09765625 C-92.0840625 2.76765625 -91.7540625 2.43765625 -91.4140625 2.09765625 C-86.4935112 1.21006958 -81.7590644 0.98005334 -76.76635742 1 C-76.03703003 1.00146027 -75.30770264 1.00292053 -74.55627441 1.00442505 C-72.98597209 1.00820684 -71.41567392 1.01429742 -69.84538841 1.02249146 C-67.36170471 1.03532588 -64.87807476 1.04178787 -62.3943634 1.04663086 C-57.13007211 1.05801523 -51.86582566 1.07728464 -46.6015625 1.09765625 C-40.4826776 1.12124914 -34.36381743 1.14161863 -28.24489784 1.15359497 C-25.79524508 1.16008809 -23.34566913 1.17259059 -20.89604187 1.18530273 C-19.40229357 1.18893337 -17.90854456 1.19228533 -16.41479492 1.1953125 C-14.45457649 1.20316772 -14.45457649 1.20316772 -12.45475769 1.21118164 C-8.22420619 1.05323256 -4.40803206 -0.03197572 0 0 Z " fill="#D9556F" transform="translate(358.4140625,69.90234375)"/>
<path d="M0 0 C3.0625 0.1875 3.0625 0.1875 5.0625 2.1875 C5.66561615 3.87511858 6.20100237 5.58764476 6.6875 7.3125 C6.94789063 8.22257812 7.20828125 9.13265625 7.4765625 10.0703125 C7.76660156 11.11832031 7.76660156 11.11832031 8.0625 12.1875 C8.33964844 11.40503906 8.61679687 10.62257813 8.90234375 9.81640625 C9.26457031 8.80449219 9.62679688 7.79257812 10 6.75 C10.35964844 5.74066406 10.71929687 4.73132812 11.08984375 3.69140625 C12.0625 1.1875 12.0625 1.1875 13.0625 0.1875 C16.42879251 0.04113946 18.84669562 0.11556521 22.0625 1.1875 C23.40394686 0.88848628 24.73724731 0.55163485 26.0625 0.1875 C31.11183884 -0.20091068 35.46784785 -0.18393337 40.0625 2.1875 C40.0625 2.8475 40.0625 3.5075 40.0625 4.1875 C39.0725 4.1875 38.0825 4.1875 37.0625 4.1875 C37.0625 3.5275 37.0625 2.8675 37.0625 2.1875 C29.1425 2.6825 29.1425 2.6825 21.0625 3.1875 C20.52122269 4.81133193 19.9813364 6.4356435 19.44921875 8.0625 C17.44581601 14.15105359 15.27721676 20.17291387 13.0625 26.1875 C10.0925 26.1875 7.1225 26.1875 4.0625 26.1875 C3.7325 24.8675 3.4025 23.5475 3.0625 22.1875 C3.7225 22.1875 4.3825 22.1875 5.0625 22.1875 C5.0625 22.8475 5.0625 23.5075 5.0625 24.1875 C7.3725 24.1875 9.6825 24.1875 12.0625 24.1875 C12.0625 22.8675 12.0625 21.5475 12.0625 20.1875 C11.0725 19.8575 10.0825 19.5275 9.0625 19.1875 C9.0625 18.5275 9.0625 17.8675 9.0625 17.1875 C6.75587011 15.13716232 4.577214 13.444857 1.8125 12.0625 C0.0625 11.1875 0.0625 11.1875 -0.9375 9.1875 C0.3825 9.1875 1.7025 9.1875 3.0625 9.1875 C3.0625 6.8775 3.0625 4.5675 3.0625 2.1875 C1.0825 2.1875 -0.8975 2.1875 -2.9375 2.1875 C-2.9375 3.5075 -2.9375 4.8275 -2.9375 6.1875 C-3.5975 6.1875 -4.2575 6.1875 -4.9375 6.1875 C-3.87127483 0.24710265 -3.87127483 0.24710265 0 0 Z " fill="#C7244A" transform="translate(317.9375,34.8125)"/>
<path d="M0 0 C2.7489314 1.877319 3.38942623 2.72271286 4.5625 5.75 C4.7578125 8.109375 4.7578125 8.109375 4.6875 10.5 C4.66945313 11.29921875 4.65140625 12.0984375 4.6328125 12.921875 C4.60960937 13.52515625 4.58640625 14.1284375 4.5625 14.75 C1.8958581 16.08332095 0.39569697 15.42102033 -2.4375 14.75 C-2.4375 13.43 -2.4375 12.11 -2.4375 10.75 C-5.7375 10.42 -9.0375 10.09 -12.4375 9.75 C-12.4375 9.42 -12.4375 9.09 -12.4375 8.75 C-9.7975 8.42 -7.1575 8.09 -4.4375 7.75 C-6.08289322 6.42424167 -6.08289322 6.42424167 -8.4375 5.75 C-11.50394453 6.94970518 -11.50394453 6.94970518 -14.4375 8.75 C-15.77083333 9.41666667 -17.10416667 10.08333333 -18.4375 10.75 C-18.51976668 13.79386724 -18.41358217 15.82175348 -17.4375 18.75 C-17.7675 19.41 -18.0975 20.07 -18.4375 20.75 C-21.2805374 15.61066316 -21.8150984 12.52560285 -20.2421875 6.8359375 C-19.12065487 3.92866359 -17.66764747 1.91256724 -15.4375 -0.25 C-10.16142215 -2.00869262 -5.21907062 -1.89784386 0 0 Z M-0.4375 4.75 C-1.4275 5.245 -1.4275 5.245 -2.4375 5.75 C-2.1075 7.07 -1.7775 8.39 -1.4375 9.75 C-0.7775 9.75 -0.1175 9.75 0.5625 9.75 C0.5625 9.09 0.5625 8.43 0.5625 7.75 C1.2225 7.42 1.8825 7.09 2.5625 6.75 C1.5725 6.09 0.5825 5.43 -0.4375 4.75 Z " fill="#3C4356" transform="translate(265.4375,36.25)"/>
<path d="M0 0 C0.66 0.33 1.32 0.66 2 1 C2 2.32 2 3.64 2 5 C2.66 5.33 3.32 5.66 4 6 C-6.47745873 17.1322999 -16.63167348 23.8951719 -32.32397461 24.5246582 C-41.66667481 24.65993317 -49.7307679 23.76238498 -58 19 C-58.33 18.34 -58.66 17.68 -59 17 C-57.5199159 17.11362262 -56.04089926 17.24122908 -54.5625 17.375 C-53.73878906 17.44460937 -52.91507813 17.51421875 -52.06640625 17.5859375 C-51.38449219 17.72257812 -50.70257813 17.85921875 -50 18 C-49.67 18.66 -49.34 19.32 -49 20 C-40.18994983 21.47297369 -31.53220285 21.68606386 -23 19 C-21.6078125 18.7834375 -21.6078125 18.7834375 -20.1875 18.5625 C-17.62682173 18.16356528 -17.62682173 18.16356528 -16 15 C-12.76650772 13.14246188 -10.75586417 12 -7 12 C-7 11.34 -7 10.68 -7 10 C-5.02 9.67 -3.04 9.34 -1 9 C-1 7.35 -1 5.7 -1 4 C-1.66 3.67 -2.32 3.34 -3 3 C-2.01 2.01 -1.02 1.02 0 0 Z " fill="#A5042C" transform="translate(83,72)"/>
<path d="M0 0 C0 0.33 0 0.66 0 1 C-5.445 1.495 -5.445 1.495 -11 2 C-11 2.66 -11 3.32 -11 4 C-11.66 4 -12.32 4 -13 4 C-12.34 5.32 -11.68 6.64 -11 8 C-10.484375 7.34 -9.96875 6.68 -9.4375 6 C-6.18392795 3.33040242 -4.09869574 3.61333059 0 4 C1.58272601 5.58272601 1.34735747 7.38034003 1.5625 9.5625 C1.68818359 10.80193359 1.68818359 10.80193359 1.81640625 12.06640625 C1.87699219 12.70449219 1.93757813 13.34257813 2 14 C3.65 14 5.3 14 7 14 C7 10.37 7 6.74 7 3 C7.66 3 8.32 3 9 3 C9.02686553 4.97909398 9.04633375 6.95828971 9.0625 8.9375 C9.07410156 10.03964844 9.08570313 11.14179687 9.09765625 12.27734375 C9 15 9 15 8 16 C5.70418219 16.07188471 3.42482931 15.99646432 1.12890625 15.9375 C-1.05502216 15.85218862 -1.05502216 15.85218862 -3 17 C-7.99220285 17.37677003 -10.98020143 17.07396361 -15 14 C-16.56935594 10.86128812 -16.35201103 8.46144178 -16 5 C-13.90743391 2.32616555 -12.21200865 0.56560404 -9.125 -0.875 C-6.00301683 -1.05864607 -3.07067086 -0.53146226 0 0 Z M-7 6 C-7 7.32 -7 8.64 -7 10 C-5.35 10 -3.7 10 -2 10 C-1.34 8.68 -0.68 7.36 0 6 C-2.31 6 -4.62 6 -7 6 Z " fill="#CC4567" transform="translate(389,45)"/>
<path d="M0 0 C3.0625 0.125 3.0625 0.125 5.0625 1.125 C-0.13194444 23.31944444 -0.13194444 23.31944444 -2.9375 26.125 C-8.7785596 26.49586093 -8.7785596 26.49586093 -10.9375 26.125 C-11.5975 25.135 -12.2575 24.145 -12.9375 23.125 C-12.4425 21.64 -12.4425 21.64 -11.9375 20.125 C-11.9375 20.785 -11.9375 21.445 -11.9375 22.125 C-11.2775 22.125 -10.6175 22.125 -9.9375 22.125 C-9.2775 20.805 -8.6175 19.485 -7.9375 18.125 C-6.6175 18.125 -5.2975 18.125 -3.9375 18.125 C-3.2775 17.135 -2.6175 16.145 -1.9375 15.125 C-1.2775 15.125 -0.6175 15.125 0.0625 15.125 C-0.2675 14.465 -0.5975 13.805 -0.9375 13.125 C-2.5875 13.125 -4.2375 13.125 -5.9375 13.125 C-5.9375 13.785 -5.9375 14.445 -5.9375 15.125 C-6.5975 14.795 -7.2575 14.465 -7.9375 14.125 C-7.29549564 11.97801798 -6.64879254 9.83244047 -6 7.6875 C-5.64035156 6.49253906 -5.28070313 5.29757813 -4.91015625 4.06640625 C-3.61637542 0.15388832 -3.61637542 0.15388832 0 0 Z " fill="#2E354B" transform="translate(240.9375,34.875)"/>
<path d="M0 0 C3.00056084 -0.08166849 5.9988539 -0.14081551 9 -0.1875 C9.83917969 -0.21263672 10.67835937 -0.23777344 11.54296875 -0.26367188 C17.38441406 -0.33159566 21.71906393 0.42554367 27 3 C27.33 3.99 27.66 4.98 28 6 C28.66 6 29.32 6 30 6 C31.67955545 8.93879309 32.2469052 11.02611548 32.22705078 14.40136719 C32.22689972 15.2619574 32.22674866 16.12254761 32.22659302 17.00921631 C32.21627045 17.92914368 32.20594788 18.84907104 32.1953125 19.796875 C32.1924826 20.74564514 32.18965271 21.69441528 32.18673706 22.67193604 C32.17555448 25.69808639 32.1504533 28.7239393 32.125 31.75 C32.11496772 33.80338114 32.1058423 35.85676692 32.09765625 37.91015625 C32.07562141 42.94021854 32.04110462 47.97005886 32 53 C31.67 53 31.34 53 31 53 C31 39.8 31 26.6 31 13 C28.03 13 25.06 13 22 13 C19.89638304 10.5776532 19 9.21754366 19 6 C18.360625 5.731875 17.72125 5.46375 17.0625 5.1875 C15 4 15 4 14 1 C9.38 1 4.76 1 0 1 C0 0.67 0 0.34 0 0 Z " fill="#D34562" transform="translate(5,3)"/>
<path d="M0 0 C0 0.66 0 1.32 0 2 C-4.0527516 2.98248524 -7.83861737 3.08159574 -12 3 C-12 3.66 -12 4.32 -12 5 C-15.3 5 -18.6 5 -22 5 C-20.21345939 7.20595109 -20.21345939 7.20595109 -17.84521484 7.22705078 C-16.54124756 7.21134033 -16.54124756 7.21134033 -15.2109375 7.1953125 C-13.79941406 7.18564453 -13.79941406 7.18564453 -12.359375 7.17578125 C-11.37453125 7.15902344 -10.3896875 7.14226562 -9.375 7.125 C-8.38242188 7.11597656 -7.38984375 7.10695313 -6.3671875 7.09765625 C-3.91121866 7.07404116 -1.45572832 7.04110799 1 7 C1 7.33 1 7.66 1 8 C0.01 8.14695312 0.01 8.14695312 -1 8.296875 C-6.68667489 9.15579985 -12.36209063 10.05566123 -18.03125 11.0234375 C-19.62646484 11.29462402 -19.62646484 11.29462402 -21.25390625 11.57128906 C-23.39772724 11.93697694 -25.54097341 12.30605274 -27.68359375 12.67871094 C-29.18599609 12.93442871 -29.18599609 12.93442871 -30.71875 13.1953125 C-31.61529297 13.35016113 -32.51183594 13.50500977 -33.43554688 13.66455078 C-35.98906059 13.99856905 -38.42800872 14.05961186 -41 14 C-40.34 13.01 -39.68 12.02 -39 11 C-36.3984375 10.70703125 -36.3984375 10.70703125 -33.375 10.8125 C-31.87066406 10.85310547 -31.87066406 10.85310547 -30.3359375 10.89453125 C-29.56507812 10.92933594 -28.79421875 10.96414062 -28 11 C-28 10.01 -28 9.02 -28 8 C-31.3 7.67 -34.6 7.34 -38 7 C-38 6.67 -38 6.34 -38 6 C-29.62320885 4.26207652 -21.2739729 2.65805714 -12.8046875 1.4296875 C-10.96519538 1.14787116 -9.13176325 0.8223202 -7.30859375 0.44921875 C-4.82354643 -0.0343353 -2.52539035 -0.07215401 0 0 Z " fill="#3691C0" transform="translate(131,84)"/>
<path d="M0 0 C1.98 0 3.96 0 6 0 C6.33 2.31 6.66 4.62 7 7 C5.68 7.33 4.36 7.66 3 8 C3.969375 8.45375 4.93875 8.9075 5.9375 9.375 C9 11 9 11 10 13 C10.99 13.66 11.98 14.32 13 15 C13 15.66 13 16.32 13 17 C13.66 17.33 14.32 17.66 15 18 C15 19.32 15 20.64 15 22 C12.69 22 10.38 22 8 22 C8 21.34 8 20.68 8 20 C7.34 20 6.68 20 6 20 C6 17.69 6 15.38 6 13 C5.34 13 4.68 13 4 13 C4 12.01 4 11.02 4 10 C2.68 10.33 1.36 10.66 0 11 C0 12.32 0 13.64 0 15 C-0.99 15 -1.98 15 -3 15 C-3.125 10.25 -3.125 10.25 -2 8 C-2 6.68 -2 5.36 -2 4 C-1.34 4 -0.68 4 0 4 C0 2.68 0 1.36 0 0 Z " fill="#CC0535" transform="translate(315,37)"/>
<path d="M0 0 C4.95 0 9.9 0 15 0 C15.495 1.485 15.495 1.485 16 3 C11.67435795 4.58255197 7.571279 5.45144652 3 6 C3 6.33 3 6.66 3 7 C-4.92 7.33 -12.84 7.66 -21 8 C-21.33 7.01 -21.66 6.02 -22 5 C-18.7 5 -15.4 5 -12 5 C-12 4.34 -12 3.68 -12 3 C-6.06 2.505 -6.06 2.505 0 2 C0 1.34 0 0.68 0 0 Z " fill="#0976B9" transform="translate(131,84)"/>
<path d="M0 0 C0.33 0 0.66 0 1 0 C1 1.65 1 3.3 1 5 C1.66 5 2.32 5 3 5 C3.65104167 6.72526042 4.30208333 8.45052083 4.953125 10.17578125 C6.34744888 12.60544264 7.53980028 13.63691637 10 15 C13.27716002 15.36208096 13.27716002 15.36208096 16.75 15.1875 C17.92046875 15.16042969 19.0909375 15.13335937 20.296875 15.10546875 C21.63492188 15.05326172 21.63492188 15.05326172 23 15 C23 15.66 23 16.32 23 17 C16.47997603 19.78754648 10.96139696 20.75517334 4 19 C0.07190542 16.89046773 -3.07712689 14.3725459 -6 11 C-6 10.34 -6 9.68 -6 9 C-4.35 8.67 -2.7 8.34 -1 8 C-0.67 5.36 -0.34 2.72 0 0 Z " fill="#AD0228" transform="translate(35,51)"/>
<path d="M0 0 C1.16648575 0.00141495 2.3329715 0.0028299 3.5348053 0.00428772 C7.24328222 0.00986419 10.95169772 0.02241241 14.66015625 0.03515625 C17.18163975 0.04017429 19.7031242 0.04473666 22.22460938 0.04882812 C28.39064579 0.05982592 34.55664663 0.0765406 40.72265625 0.09765625 C40.72265625 0.42765625 40.72265625 0.75765625 40.72265625 1.09765625 C19.07670354 3.15134628 -2.55123903 3.6857076 -24.27734375 4.09765625 C-23.63796875 3.78828125 -22.99859375 3.47890625 -22.33984375 3.16015625 C-20.34123554 2.26313995 -20.34123554 2.26313995 -19.27734375 1.09765625 C-12.88114136 -0.1755506 -6.49987959 -0.02986849 0 0 Z " fill="#D91F4D" transform="translate(286.27734375,70.90234375)"/>
<path d="M0 0 C2.25861997 4.93387858 4.40109514 9.80355921 6 15 C5.05125 15.45375 4.1025 15.9075 3.125 16.375 C-0.00313679 17.80238254 -0.00313679 17.80238254 -2 20 C-3.00380916 17.20964954 -4.0031945 14.41785145 -5 11.625 C-5.42925781 10.43390625 -5.42925781 10.43390625 -5.8671875 9.21875 C-6.13789063 8.45820312 -6.40859375 7.69765625 -6.6875 6.9140625 C-6.93886719 6.2123291 -7.19023437 5.5105957 -7.44921875 4.78759766 C-8 3 -8 3 -8 1 C-5.29120665 -0.35439668 -2.99066732 -0.06501451 0 0 Z " fill="#262D43" transform="translate(213,35)"/>
<path d="M0 0 C0.33 0.99 0.66 1.98 1 3 C-0.92553337 6.85106674 -2.50295329 8.71324228 -6.25 10.875 C-11.21301858 12.36390557 -15.53908161 12.98436735 -20.5 11 C-20.995 10.67 -21.49 10.34 -22 10 C-19.19667962 5.84023427 -17.41749278 3.74262214 -12.4375 2.625 C-9.51454417 2.1082903 -7.00662313 2 -4 2 C-3.67 2.66 -3.34 3.32 -3 4 C-2.67 3.34 -2.34 2.68 -2 2 C-1.34 2 -0.68 2 0 2 C0 1.34 0 0.68 0 0 Z " fill="#282E46" transform="translate(144,50)"/>
<path d="M0 0 C-3.64038555 1.98493428 -6.89295124 2.4575596 -11 3 C-11.33 3.33 -11.66 3.66 -12 4 C-1.11 4 9.78 4 21 4 C21 4.33 21 4.66 21 5 C10.54350568 5.74784634 0.10891006 6.12661341 -10.375 6.1875 C-12.00586548 6.20683594 -12.00586548 6.20683594 -13.66967773 6.2265625 C-15.20603882 6.22849609 -15.20603882 6.22849609 -16.7734375 6.23046875 C-17.68528809 6.23457764 -18.59713867 6.23868652 -19.53662109 6.24291992 C-22.13459816 5.98672694 -23.76648094 5.31554077 -26 4 C-25.67 3.67 -25.34 3.34 -25 3 C-30.28 2.67 -35.56 2.34 -41 2 C-41 1.67 -41 1.34 -41 1 C-27.32550669 0.3507249 -13.69096943 -0.16741675 0 0 Z " fill="#C8648D" transform="translate(278,70)"/>
<path d="M0 0 C3.84228519 0.1255193 6.26271719 0.64578626 9.1875 3.3125 C10.93689788 7.72764703 11.4179523 11.58822784 11.1875 16.3125 C8.8775 16.6425 6.5675 16.9725 4.1875 17.3125 C4.5175 15.6625 4.8475 14.0125 5.1875 12.3125 C4.5275 12.3125 3.8675 12.3125 3.1875 12.3125 C2.73375 11.6525 2.28 10.9925 1.8125 10.3125 C1.27625 9.6525 0.74 8.9925 0.1875 8.3125 C-1.1325 8.3125 -2.4525 8.3125 -3.8125 8.3125 C-3.8125 7.6525 -3.8125 6.9925 -3.8125 6.3125 C-2.1625 5.9825 -0.5125 5.6525 1.1875 5.3125 C0.8575 4.6525 0.5275 3.9925 0.1875 3.3125 C-2.84184491 2.65477572 -2.84184491 2.65477572 -5.8125 2.3125 C-3.8125 0.3125 -3.8125 0.3125 0 0 Z " fill="#393F51" transform="translate(286.8125,34.6875)"/>
<path d="M0 0 C1.32 0 2.64 0 4 0 C4 10.89 4 21.78 4 33 C2.68 33 1.36 33 0 33 C0 22.11 0 11.22 0 0 Z " fill="#D20436" transform="translate(366,26)"/>
<path d="M0 0 C2 1.1875 2 1.1875 4 4.1875 C4 5.1775 4 6.1675 4 7.1875 C3.01 7.1875 2.02 7.1875 1 7.1875 C0.67 5.8675 0.34 4.5475 0 3.1875 C-1.32 2.8575 -2.64 2.5275 -4 2.1875 C-3.67 3.5075 -3.34 4.8275 -3 6.1875 C-5.94207004 7.65853502 -8.7395144 7.1875 -12 7.1875 C-14.31036915 7.61604995 -14.31036915 7.61604995 -16 8.1875 C-18 5.1875 -18 5.1875 -18 1.1875 C-12.44197229 -1.77678144 -5.96549604 -1.61565518 0 0 Z " fill="#CD5574" transform="translate(393,35.8125)"/>
<path d="M0 0 C0.99 0.99 1.98 1.98 3 3 C2.34 3 1.68 3 1 3 C0.67 3.66 0.34 4.32 0 5 C-0.66 5 -1.32 5 -2 5 C-2 3.68 -2 2.36 -2 1 C-1.34 0.67 -0.68 0.34 0 0 Z M-12 3 C-12 3.66 -12 4.32 -12 5 C-8.7 5 -5.4 5 -2 5 C-1.67 5.99 -1.34 6.98 -1 8 C-1.33 8.66 -1.66 9.32 -2 10 C-4.21484375 10.34375 -4.21484375 10.34375 -6.9375 10.5 C-10.94706229 10.59786386 -10.94706229 10.59786386 -14 13 C-14.33 13 -14.66 13 -15 13 C-15.99 14.485 -15.99 14.485 -17 16 C-19.0880823 12.60686626 -19.50476722 9.95400991 -19 6 C-16.54157496 3.45680168 -15.57478534 3 -12 3 Z " fill="#141B32" transform="translate(265,41)"/>
<path d="M0 0 C0.33 0.66 0.66 1.32 1 2 C0.67 2.99 0.34 3.98 0 5 C-0.66 5 -1.32 5 -2 5 C-1.938125 6.423125 -1.938125 6.423125 -1.875 7.875 C-2 11 -2 11 -4 13 C-4.35529414 15.42104489 -4.35529414 15.42104489 -4.37890625 18.2421875 C-4.41306641 19.30953125 -4.44722656 20.376875 -4.48242188 21.4765625 C-4.50884766 22.59804688 -4.53527344 23.71953125 -4.5625 24.875 C-5.24851646 49.39643951 -5.24851646 49.39643951 -8 56 C-10.475 56.495 -10.475 56.495 -13 57 C-12.360625 56.071875 -11.72125 55.14375 -11.0625 54.1875 C-7.93005876 49.34645445 -7.85448881 45.48255958 -7.82421875 39.89453125 C-7.80100841 38.25454463 -7.7768906 36.61457064 -7.75195312 34.97460938 C-7.71695362 32.39859704 -7.6875552 29.8230465 -7.67407227 27.24682617 C-7.65848353 24.7538283 -7.61819775 22.26216982 -7.57421875 19.76953125 C-7.57612717 19.01090286 -7.57803558 18.25227448 -7.58000183 17.47065735 C-7.4391498 11.23149304 -5.72295858 5.87787059 -1.36552429 1.27253723 C-0.68958977 0.6426313 -0.68958977 0.6426313 0 0 Z " fill="#E27B8E" transform="translate(71,9)"/>
<path d="M0 0 C0 0.66 0 1.32 0 2 C-0.99 2 -1.98 2 -3 2 C-3 1.34 -3 0.68 -3 0 C-10.92 0.495 -10.92 0.495 -19 1 C-19.56471476 2.69414427 -20.12746648 4.38895487 -20.68359375 6.0859375 C-22.00901543 10.11027482 -23.36023349 14.08978755 -25 18 C-25.33 18 -25.66 18 -26 18 C-25.67 15.69 -25.34 13.38 -25 11 C-25.99 10.67 -26.98 10.34 -28 10 C-27.67 6.7 -27.34 3.4 -27 0 C-26.154375 0.04125 -25.30875 0.0825 -24.4375 0.125 C-20.97252031 0.14472821 -20.97252031 0.14472821 -17.6875 -1 C-11.58562712 -2.65474519 -5.74860193 -2.96702035 0 0 Z " fill="#D22F58" transform="translate(358,37)"/>
<path d="M0 0 C2.97 0.495 2.97 0.495 6 1 C6 3 6 5 6 7 C6.66 7 7.32 7 8 7 C12 13.75 12 13.75 12 16 C8.7 16 5.4 16 2 16 C0.02 12.535 0.02 12.535 -2 9 C-1.360625 8.773125 -0.72125 8.54625 -0.0625 8.3125 C2.27193661 7.14749104 2.27193661 7.14749104 2.75 4.375 C2.8325 3.59125 2.915 2.8075 3 2 C2.34 2 1.68 2 1 2 C0.67 2.66 0.34 3.32 0 4 C0 2.68 0 1.36 0 0 Z " fill="#394152" transform="translate(168,45)"/>
<path d="M0 0 C-0.66 1.65 -1.32 3.3 -2 5 C-3.7015625 5.2165625 -3.7015625 5.2165625 -5.4375 5.4375 C-8.80777201 5.61171478 -8.80777201 5.61171478 -10 7 C-12.18639453 7.07258946 -14.37500389 7.08373783 -16.5625 7.0625 C-18.35880859 7.04896484 -18.35880859 7.04896484 -20.19140625 7.03515625 C-21.11824219 7.02355469 -22.04507813 7.01195313 -23 7 C-22.34 6.67 -21.68 6.34 -21 6 C-21.33 5.01 -21.66 4.02 -22 3 C-18.85705611 1.18931101 -16.29080227 0.65021686 -12.6875 0.375 C-11.72585937 0.30152344 -10.76421875 0.22804688 -9.7734375 0.15234375 C-6.50220231 -0.02734382 -3.27478127 -0.07277292 0 0 Z " fill="#735691" transform="translate(213,75)"/>
<path d="M0 0 C18.05410023 -0.5022779 18.05410023 -0.5022779 24.5625 3.625 C25.036875 4.07875 25.51125 4.5325 26 5 C25.67 5.66 25.34 6.32 25 7 C24.01 6.67 23.02 6.34 22 6 C22 5.34 22 4.68 22 4 C21.01 4 20.02 4 19 4 C19.185625 4.680625 19.37125 5.36125 19.5625 6.0625 C20.09136657 9.61346127 19.7409049 12.49754047 19 16 C16.23547967 17.38226016 13.9538637 17.09525387 10.875 17.0625 C9.77929688 17.05347656 8.68359375 17.04445313 7.5546875 17.03515625 C6.29011719 17.01775391 6.29011719 17.01775391 5 17 C3.68776504 13.06329512 4.75703744 10.87511856 6 7 C9.63 7 13.26 7 17 7 C16.34 5.68 15.68 4.36 15 3 C12.35838054 2.37076031 10.05129295 1.98701487 7.375 1.75 C6.66859375 1.67265625 5.9621875 1.5953125 5.234375 1.515625 C3.4912947 1.32718389 1.74579076 1.16141131 0 1 C0 0.67 0 0.34 0 0 Z M7 8 C7 10.64 7 13.28 7 16 C8.64574566 16.02688151 10.29161413 16.04634123 11.9375 16.0625 C13.31228516 16.07990234 13.31228516 16.07990234 14.71484375 16.09765625 C16.96593327 16.25949049 16.96593327 16.25949049 18 15 C18.04080783 13.00041636 18.04254356 10.99954746 18 9 C15.59454362 7.79727181 14.05003047 7.89928528 11.375 7.9375 C10.55773437 7.94652344 9.74046875 7.95554687 8.8984375 7.96484375 C8.27195313 7.97644531 7.64546875 7.98804688 7 8 Z " fill="#686D7B" transform="translate(151,25)"/>
<path d="M0 0 C2 3 2 3 3 6 C3.66 4.02 4.32 2.04 5 0 C6.0625 1.8125 6.0625 1.8125 7 4 C6.67 4.99 6.34 5.98 6 7 C5.65772583 8.33106622 5.32248257 9.66400079 5 11 C5.99 11 6.98 11 8 11 C8 9.68 8 8.36 8 7 C9.32 6.67 10.64 6.34 12 6 C12 6.99 12 7.98 12 9 C12.66 9 13.32 9 14 9 C14.625 11.375 14.625 11.375 15 14 C14.34 14.66 13.68 15.32 13 16 C12.34 14.02 11.68 12.04 11 10 C9.68 13.3 8.36 16.6 7 20 C4.03 20 1.06 20 -2 20 C-2.33 18.35 -2.66 16.7 -3 15 C-2.34 15.66 -1.68 16.32 -1 17 C2.58343976 17.16677282 2.58343976 17.16677282 6 17 C6.33 15.35 6.66 13.7 7 12 C5.35 12.33 3.7 12.66 2 13 C1.855625 12.38125 1.71125 11.7625 1.5625 11.125 C1.06847775 8.96741678 1.06847775 8.96741678 0 7 C-0.04022391 4.6670134 -0.04320247 2.33293334 0 0 Z " fill="#CC4D6C" transform="translate(307,41)"/>
<path d="M0 0 C0.33 0 0.66 0 1 0 C1.02684679 2.64590014 1.04676357 5.29153096 1.0625 7.9375 C1.07087891 8.69224609 1.07925781 9.44699219 1.08789062 10.22460938 C1.09652441 12.14994313 1.05224333 14.07535581 1 16 C0 17 0 17 -1.99609375 17.0625 C-3.62109546 17.02089996 -5.24609547 16.9792335 -6.87109375 16.9375 C-9.05502216 16.85218862 -9.05502216 16.85218862 -11 18 C-14 18.1875 -14 18.1875 -17 18 C-17.66 17.34 -18.32 16.68 -19 16 C-16.03 16 -13.06 16 -10 16 C-10 15.01 -10 14.02 -10 13 C-12.31 13 -14.62 13 -17 13 C-16.625 10.0625 -16.625 10.0625 -16 7 C-12.78548731 5.39274365 -9.56387464 5.94251815 -6 6 C-6.875 12.75 -6.875 12.75 -8 15 C-6.02 15 -4.04 15 -2 15 C-1.34 10.05 -0.68 5.1 0 0 Z M-14 7 C-14 8.32 -14 9.64 -14 11 C-12.35 10.67 -10.7 10.34 -9 10 C-8.67 9.01 -8.34 8.02 -8 7 C-9.98 7 -11.96 7 -14 7 Z " fill="#CC4365" transform="translate(360,44)"/>
<path d="M0 0 C0.66 0 1.32 0 2 0 C2.02686553 1.97909398 2.04633375 3.95828971 2.0625 5.9375 C2.07410156 7.03964844 2.08570313 8.14179687 2.09765625 9.27734375 C2 12 2 12 1 13 C-1.70108504 12.909084 -4.36930311 12.76259234 -7.0625 12.5625 C-7.82111328 12.51029297 -8.57972656 12.45808594 -9.36132812 12.40429688 C-11.24121722 12.27424165 -13.12065685 12.13771962 -15 12 C-15.33 11.01 -15.66 10.02 -16 9 C-14.68 9 -13.36 9 -12 9 C-12 8.34 -12 7.68 -12 7 C-11.360625 6.71125 -10.72125 6.4225 -10.0625 6.125 C-7.84793921 5.17176549 -7.84793921 5.17176549 -7 3 C-9.31 3 -11.62 3 -14 3 C-14 2.34 -14 1.68 -14 1 C-11.66705225 0.95758277 -9.33297433 0.95907063 -7 1 C-5.41727399 2.58272601 -5.65264253 4.38034003 -5.4375 6.5625 C-5.35371094 7.38878906 -5.26992188 8.21507812 -5.18359375 9.06640625 C-5.12300781 9.70449219 -5.06242187 10.34257813 -5 11 C-3.35 11 -1.7 11 0 11 C0 7.37 0 3.74 0 0 Z " fill="#CA3356" transform="translate(396,48)"/>
<path d="M0 0 C1.25476971 2.50953942 0.67810745 3.37233363 0 6 C0.33 6.33 0.66 6.66 1 7 C1.04063832 8.66617115 1.042721 10.33388095 1 12 C-0.98 12.33 -2.96 12.66 -5 13 C-5 13.66 -5 14.32 -5 15 C-5.7425 15.28875 -6.485 15.5775 -7.25 15.875 C-12.42137787 17.88661412 -12.42137787 17.88661412 -16 22 C-19.625 22.6875 -19.625 22.6875 -23 23 C-22.67 22.34 -22.34 21.68 -22 21 C-21.34 21 -20.68 21 -20 21 C-19.67 20.34 -19.34 19.68 -19 19 C-16.98228501 17.88677794 -14.95195537 16.98078215 -12.8125 16.125 C-10.79922538 15.13720728 -10.79922538 15.13720728 -10.25 12.875 C-10.1675 12.25625 -10.085 11.6375 -10 11 C-9.38382813 10.91621094 -8.76765625 10.83242187 -8.1328125 10.74609375 C-5.8732008 10.19462025 -5.8732008 10.19462025 -4.8046875 8.22265625 C-4.49789062 7.50980469 -4.19109375 6.79695313 -3.875 6.0625 C-2.73544797 3.46790013 -2.03450153 2.03450153 0 0 Z " fill="#BD012E" transform="translate(81,69)"/>
<path d="M0 0 C0 0.33 0 0.66 0 1 C-0.75925781 1.04898438 -1.51851562 1.09796875 -2.30078125 1.1484375 C-3.79158203 1.26058594 -3.79158203 1.26058594 -5.3125 1.375 C-6.79169922 1.47941406 -6.79169922 1.47941406 -8.30078125 1.5859375 C-11.21528433 1.83865472 -11.21528433 1.83865472 -14 4 C-14 4.66 -14 5.32 -14 6 C-12.68 6.66 -11.36 7.32 -10 8 C-14.62 8.33 -19.24 8.66 -24 9 C-24.33 7.68 -24.66 6.36 -25 5 C-24.67 4.67 -24.34 4.34 -24 4 C-25.65 3.67 -27.3 3.34 -29 3 C-29 2.67 -29 2.34 -29 2 C-19.27088552 0.60120562 -9.85816251 -0.30384747 0 0 Z " fill="#8788B5" transform="translate(206,75)"/>
<path d="M0 0 C0.66 0 1.32 0 2 0 C2.62416105 7.02181186 0.80744864 13.99551037 -3.2734375 19.81640625 C-4.5625 21.1875 -4.5625 21.1875 -7 23 C-7.99 23 -8.98 23 -10 23 C-9.67156964 19.49674282 -8.58985756 17.18937815 -6.6875 14.3125 C-3.72592918 9.80987925 -1.84974698 5.04288562 0 0 Z " fill="#BB7199" transform="translate(101,60)"/>
<path d="M0 0 C0.99 0 1.98 0 3 0 C3 0.66 3 1.32 3 2 C4.65 2.33 6.3 2.66 8 3 C8.10815225 4.76949095 8.18566083 6.54087487 8.25 8.3125 C8.29640625 9.29863281 8.3428125 10.28476562 8.390625 11.30078125 C8 14 8 14 5.984375 15.85546875 C5.32953125 16.23316406 4.6746875 16.61085938 4 17 C3.34 16.01 2.68 15.02 2 14 C1.34 13.67 0.68 13.34 0 13 C0.66 11.02 1.32 9.04 2 7 C1.34 7 0.68 7 0 7 C0 4.69 0 2.38 0 0 Z " fill="#131C33" transform="translate(170,29)"/>
<path d="M0 0 C0.33 0 0.66 0 1 0 C1.07505712 3.94684991 1.12902215 7.89341427 1.16479492 11.84082031 C1.18701479 13.83152905 1.22516595 15.82203968 1.26367188 17.8125 C1.32124246 25.41181664 0.78825267 31.89367547 -2 39 C-2.33 39 -2.66 39 -3 39 C-3.60286678 7.20573356 -3.60286678 7.20573356 0 0 Z " fill="#A10E2A" transform="translate(94,30)"/>
<path d="M0 0 C0.33 0 0.66 0 1 0 C1.33 3.3 1.66 6.6 2 10 C2.99 10.33 3.98 10.66 5 11 C5.33 11.66 5.66 12.32 6 13 C6.66 13 7.32 13 8 13 C8.042721 14.66611905 8.04063832 16.33382885 8 18 C7 19 7 19 3.5625 19.25 C2.386875 19.1675 1.21125 19.085 0 19 C-2.45657845 15.31513232 -2.07631341 13.34986453 -2 9 C-2.42854995 6.68963085 -2.42854995 6.68963085 -3 5 C-2.01 5.495 -2.01 5.495 -1 6 C-0.67 4.02 -0.34 2.04 0 0 Z " fill="#C80737" transform="translate(306,40)"/>
<path d="M0 0 C0 1.32 0 2.64 0 4 C3.96 4.33 7.92 4.66 12 5 C12 5.33 12 5.66 12 6 C8.10529437 6.67336904 4.20907067 7.33751584 0.3125 8 C-0.79029297 8.19078125 -1.89308594 8.3815625 -3.02929688 8.578125 C-4.09599609 8.75859375 -5.16269531 8.9390625 -6.26171875 9.125 C-7.24100342 9.29257813 -8.22028809 9.46015625 -9.22924805 9.6328125 C-11.85911357 9.98132935 -14.35123122 10.06764613 -17 10 C-16.34 9.01 -15.68 8.02 -15 7 C-12.3984375 6.70703125 -12.3984375 6.70703125 -9.375 6.8125 C-7.87066406 6.85310547 -7.87066406 6.85310547 -6.3359375 6.89453125 C-5.56507812 6.92933594 -4.79421875 6.96414062 -4 7 C-4 6.01 -4 5.02 -4 4 C-7.3 3.67 -10.6 3.34 -14 3 C-14 2.67 -14 2.34 -14 2 C-12.4176994 1.66179834 -10.83410625 1.32964061 -9.25 1 C-8.36828125 0.814375 -7.4865625 0.62875 -6.578125 0.4375 C-4 0 -4 0 0 0 Z " fill="#50A1CD" transform="translate(107,88)"/>
<path d="M0 0 C0 0.33 0 0.66 0 1 C-1.21236328 1.12955078 -1.21236328 1.12955078 -2.44921875 1.26171875 C-9.42585305 1.94925422 -9.42585305 1.94925422 -15.25 5.4375 C-17.28198082 7.89572584 -17.28198082 7.89572584 -17 11 C-18.134375 11.268125 -19.26875 11.53625 -20.4375 11.8125 C-21.613125 12.204375 -22.78875 12.59625 -24 13 C-24.33 13.99 -24.66 14.98 -25 16 C-25.66 16 -26.32 16 -27 16 C-26.67 14.35 -26.34 12.7 -26 11 C-25.34 11 -24.68 11 -24 11 C-23.9071875 9.88625 -23.9071875 9.88625 -23.8125 8.75 C-22.71639212 5.04009641 -21.24871529 4.04810312 -18 2 C-12.04481128 -0.38207549 -6.30557444 -0.20524474 0 0 Z " fill="#EF4C6A" transform="translate(95,3)"/>
<path d="M0 0 C0 0.66 0 1.32 0 2 C3.63 2.66 7.26 3.32 11 4 C11 4.33 11 4.66 11 5 C5.28094617 5.82536345 -0.2267149 6.12753701 -6 6.0625 C-7.16208984 6.05573242 -7.16208984 6.05573242 -8.34765625 6.04882812 C-10.23180524 6.03719758 -12.11591365 6.01926906 -14 6 C-14.33 5.34 -14.66 4.68 -15 4 C-13.25307205 3.32532438 -11.50231475 2.66055844 -9.75 2 C-8.77546875 1.62875 -7.8009375 1.2575 -6.796875 0.875 C-4 0 -4 0 0 0 Z " fill="#4397C4" transform="translate(72,95)"/>
<path d="M0 0 C0 0.66 0 1.32 0 2 C-1.98 2.33 -3.96 2.66 -6 3 C-6 3.33 -6 3.66 -6 4 C-2.7 4.33 0.6 4.66 4 5 C4 5.33 4 5.66 4 6 C-12.70842825 8.11161731 -12.70842825 8.11161731 -21 9 C-21.33 8.34 -21.66 7.68 -22 7 C-19.94921875 6.77213542 -17.8984375 6.54427083 -15.84765625 6.31640625 C-13.98859771 6.18113386 -13.98859771 6.18113386 -13 5 C-11.33382885 4.95936168 -9.66611905 4.957279 -8 5 C-8.33 4.34 -8.66 3.68 -9 3 C-12.27555608 2.52998967 -12.27555608 2.52998967 -16.0625 2.375 C-17.99802734 2.26285156 -17.99802734 2.26285156 -19.97265625 2.1484375 C-21.47119141 2.07496094 -21.47119141 2.07496094 -23 2 C-23 1.67 -23 1.34 -23 1 C-20.62561751 0.6616656 -18.25065041 0.32920998 -15.875 0 C-14.87726563 -0.14308594 -14.87726563 -0.14308594 -13.859375 -0.2890625 C-3.43870192 -1.71935096 -3.43870192 -1.71935096 0 0 Z " fill="#538CC0" transform="translate(155,82)"/>
<path d="M0 0 C1.15019009 3.45057028 0.80497206 4.30159244 -0.375 7.625 C-0.65085938 8.42164063 -0.92671875 9.21828125 -1.2109375 10.0390625 C-2 12 -2 12 -3 13 C-8.8410596 13.37086093 -8.8410596 13.37086093 -11 13 C-11.66 12.01 -12.32 11.02 -13 10 C-12.67 9.01 -12.34 8.02 -12 7 C-12 7.66 -12 8.32 -12 9 C-11.34 9 -10.68 9 -10 9 C-9.34 7.68 -8.68 6.36 -8 5 C-6.68 5 -5.36 5 -4 5 C-3.34 4.01 -2.68 3.02 -2 2 C-1.34 2 -0.68 2 0 2 C0 1.34 0 0.68 0 0 Z " fill="#43485C" transform="translate(241,48)"/>
<path d="M0 0 C3.5 0.125 3.5 0.125 4.5 1.125 C4.58758003 3.12464982 4.60696576 5.1273611 4.59765625 7.12890625 C4.59443359 8.34384766 4.59121094 9.55878906 4.58789062 10.81054688 C4.57951172 12.08994141 4.57113281 13.36933594 4.5625 14.6875 C4.55798828 15.97076172 4.55347656 17.25402344 4.54882812 18.57617188 C4.53699545 21.75916022 4.52051068 24.94205762 4.5 28.125 C4.17 28.125 3.84 28.125 3.5 28.125 C3.17 19.875 2.84 11.625 2.5 3.125 C0.85 3.125 -0.8 3.125 -2.5 3.125 C-2.83 14.015 -3.16 24.905 -3.5 36.125 C-3.83 36.125 -4.16 36.125 -4.5 36.125 C-4.52465098 31.15877651 -4.54283649 26.19258834 -4.55493164 21.22631836 C-4.5599719 19.53555684 -4.56680405 17.84479971 -4.57543945 16.15405273 C-4.58751857 13.72899293 -4.59323123 11.30399056 -4.59765625 8.87890625 C-4.60281754 8.11848526 -4.60797882 7.35806427 -4.61329651 6.57460022 C-4.61349238 4.7576743 -4.56197277 2.94086873 -4.5 1.125 C-3.5 0.125 -3.5 0.125 0 0 Z " fill="#8E919B" transform="translate(186.5,24.875)"/>
<path d="M0 0 C2.10241603 -0.13496251 4.2072961 -0.23197307 6.3125 -0.3125 C7.48425781 -0.37050781 8.65601563 -0.42851563 9.86328125 -0.48828125 C13 0 13 0 14.91796875 2.51953125 C15.45357422 3.74736328 15.45357422 3.74736328 16 5 C9.25846717 6.25841946 2.86515862 7.26404456 -4 7 C-4 6.67 -4 6.34 -4 6 C-0.535 5.505 -0.535 5.505 3 5 C3.33 4.01 3.66 3.02 4 2 C2.68 1.34 1.36 0.68 0 0 Z " fill="#905E94" transform="translate(208,74)"/>
<path d="M0 0 C0 0.33 0 0.66 0 1 C2.31 1.33 4.62 1.66 7 2 C7.33 2.99 7.66 3.98 8 5 C7.34 5.66 6.68 6.32 6 7 C5.67 5.68 5.34 4.36 5 3 C3.02 3 1.04 3 -1 3 C-1 6.96 -1 10.92 -1 15 C-3.64 15 -6.28 15 -9 15 C-9 14.67 -9 14.34 -9 14 C-6.69 14 -4.38 14 -2 14 C-2.33 11.36 -2.66 8.72 -3 6 C-4.65 5.67 -6.3 5.34 -8 5 C-7.625 2.5625 -7.625 2.5625 -7 0 C-4.3333581 -1.33332095 -2.83319697 -0.67102033 0 0 Z " fill="#393F54" transform="translate(159,46)"/>
<path d="M0 0 C4.62 0 9.24 0 14 0 C14.99 1.65 15.98 3.3 17 5 C14 4 11 3 8 2 C6.33378384 1.96125079 4.66605828 1.9549714 3 2 C2.20679475 6.26241969 1.82268505 10.37923686 1.68359375 14.7109375 C1.64169922 15.95488281 1.59980469 17.19882812 1.55664062 18.48046875 C1.51732422 19.76566406 1.47800781 21.05085938 1.4375 22.375 C1.39431641 23.68339844 1.35113281 24.99179687 1.30664062 26.33984375 C1.20087571 29.55979797 1.09878421 32.77982531 1 36 C0.67 36 0.34 36 0 36 C0 24.12 0 12.24 0 0 Z " fill="#A91A37" transform="translate(5,4)"/>
<path d="M0 0 C1.32 0.33 2.64 0.66 4 1 C4.33 2.98 4.66 4.96 5 7 C2.24921116 7.91692961 0.64051087 8.10886083 -2.1875 8.0625 C-4.0746875 8.0315625 -4.0746875 8.0315625 -6 8 C-6.33 6.68 -6.66 5.36 -7 4 C-5.824375 3.8453125 -5.824375 3.8453125 -4.625 3.6875 C-1.66954819 3.22404978 -1.66954819 3.22404978 0 0 Z " fill="#1D243A" transform="translate(290,53)"/>
<path d="M0 0 C0.99 0.33 1.98 0.66 3 1 C4.32 0.67 5.64 0.34 7 0 C7 4.29 7 8.58 7 13 C6.67 13 6.34 13 6 13 C5.67 10.03 5.34 7.06 5 4 C4.01 3.67 3.02 3.34 2 3 C2 9.27 2 15.54 2 22 C1.34 22 0.68 22 0 22 C0 14.74 0 7.48 0 0 Z " fill="#151A30" transform="translate(115,27)"/>
<path d="M0 0 C2 3 2 3 2 5 C-0.97 4.505 -0.97 4.505 -4 4 C-4 4.99 -4 5.98 -4 7 C-2.68 7.66 -1.36 8.32 0 9 C0 9.33 0 9.66 0 10 C-1.41623216 10.05447047 -2.83308191 10.09300508 -4.25 10.125 C-5.03890625 10.14820312 -5.8278125 10.17140625 -6.640625 10.1953125 C-9.20731941 9.9828378 -10.7916067 9.28654105 -13 8 C-13 7.34 -13 6.68 -13 6 C-10.09399739 4.74335022 -8.20395416 4 -5 4 C-5 3.34 -5 2.68 -5 2 C-3.35 1.34 -1.7 0.68 0 0 Z " fill="#0778B8" transform="translate(85,89)"/>
<path d="M0 0 C3.0625 0.125 3.0625 0.125 5.0625 1.125 C5.0625 9.045 5.0625 16.965 5.0625 25.125 C4.7325 25.125 4.4025 25.125 4.0625 25.125 C4.0625 17.535 4.0625 9.945 4.0625 2.125 C2.4125 2.455 0.7625 2.785 -0.9375 3.125 C-1.5975 2.795 -2.2575 2.465 -2.9375 2.125 C-2.9375 9.715 -2.9375 17.305 -2.9375 25.125 C-3.2675 25.125 -3.5975 25.125 -3.9375 25.125 C-3.96636984 21.14584841 -3.98425406 17.16672347 -4 13.1875 C-4.00837891 12.05119141 -4.01675781 10.91488281 -4.02539062 9.74414062 C-4.02861328 8.66455078 -4.03183594 7.58496094 -4.03515625 6.47265625 C-4.04039307 5.47242432 -4.04562988 4.47219238 -4.05102539 3.44165039 C-3.8802745 -0.04276948 -3.54351015 0.15078767 0 0 Z " fill="#8B8E9A" transform="translate(140.9375,24.875)"/>
<path d="M0 0 C0.66 0.33 1.32 0.66 2 1 C2.34541851 3.33157492 2.67794257 5.66508361 3 8 C3.99 9.485 3.99 9.485 5 11 C5.99 10.34 6.98 9.68 8 9 C8.33 10.65 8.66 12.3 9 14 C8.34 14 7.68 14 7 14 C7.20625 14.61875 7.4125 15.2375 7.625 15.875 C7.74875 16.57625 7.8725 17.2775 8 18 C7.34 18.66 6.68 19.32 6 20 C-1.30330882 7.91176471 -1.30330882 7.91176471 -0.6875 2 C-0.460625 1.34 -0.23375 0.68 0 0 Z " fill="#E74365" transform="translate(6,59)"/>
<path d="M0 0 C1.4800841 0.11362262 2.95910074 0.24122908 4.4375 0.375 C5.26121094 0.44460937 6.08492187 0.51421875 6.93359375 0.5859375 C7.95646484 0.79089844 7.95646484 0.79089844 9 1 C9.33 1.66 9.66 2.32 10 3 C12.09341518 3.4290258 12.09341518 3.4290258 14.5 3.5625 C18.90394511 3.90394511 18.90394511 3.90394511 20 5 C22.34987262 5.23527773 24.70556039 5.41386417 27.0625 5.5625 C28.99802734 5.68818359 28.99802734 5.68818359 30.97265625 5.81640625 C32.47119141 5.90728516 32.47119141 5.90728516 34 6 C34 6.33 34 6.66 34 7 C11.43935253 8.01219256 11.43935253 8.01219256 1 2 C0.67 1.34 0.34 0.68 0 0 Z " fill="#C54863" transform="translate(24,89)"/>
<path d="M0 0 C3.0625 0.1875 3.0625 0.1875 5.0625 2.1875 C5.64505191 3.81251323 6.15881966 5.46285963 6.625 7.125 C6.87378906 8.00027344 7.12257813 8.87554687 7.37890625 9.77734375 C7.71728516 10.97037109 7.71728516 10.97037109 8.0625 12.1875 C8.3925 13.1775 8.7225 14.1675 9.0625 15.1875 C8.0725 15.1875 7.0825 15.1875 6.0625 15.1875 C5.4025 14.5275 4.7425 13.8675 4.0625 13.1875 C3.381875 12.8575 2.70125 12.5275 2 12.1875 C0.0625 11.1875 0.0625 11.1875 -0.9375 9.1875 C0.3825 9.1875 1.7025 9.1875 3.0625 9.1875 C3.0625 6.8775 3.0625 4.5675 3.0625 2.1875 C1.0825 2.1875 -0.8975 2.1875 -2.9375 2.1875 C-2.9375 3.5075 -2.9375 4.8275 -2.9375 6.1875 C-3.5975 6.1875 -4.2575 6.1875 -4.9375 6.1875 C-3.87127483 0.24710265 -3.87127483 0.24710265 0 0 Z " fill="#CE3556" transform="translate(317.9375,34.8125)"/>
<path d="M0 0 C1.02214896 3.25229215 1.18671298 4.58923143 -0.25 7.75 C-2 10 -2 10 -5 11 C-5 9.68 -5 8.36 -5 7 C-5.66 7 -6.32 7 -7 7 C-7.33 7.66 -7.66 8.32 -8 9 C-8 6.69 -8 4.38 -8 2 C-5.09399739 0.74335022 -3.20395416 0 0 0 Z " fill="#202539" transform="translate(229,35)"/>
<path d="M0 0 C7.92 0 15.84 0 24 0 C22.02 0.99 22.02 0.99 20 2 C20.99 2.66 21.98 3.32 23 4 C16.375 4.25 16.375 4.25 13 2 C10.93089407 1.97250522 10.93089407 1.97250522 8.8125 2.375 C7.554375 2.58125 6.29625 2.7875 5 3 C5 3.66 5 4.32 5 5 C3.35 5 1.7 5 0 5 C0 4.01 0 3.02 0 2 C0.99 1.67 1.98 1.34 3 1 C2.01 0.67 1.02 0.34 0 0 Z " fill="#98417D" transform="translate(233,72)"/>
<path d="M0 0 C2.6855594 2.6855594 3.06049974 5.37621328 4 9 C4.66 7.68 5.32 6.36 6 5 C5.67 6.65 5.34 8.3 5 10 C2.03 10 -0.94 10 -4 10 C-4.33 8.02 -4.66 6.04 -5 4 C-4.0409375 3.8453125 -4.0409375 3.8453125 -3.0625 3.6875 C-2.381875 3.460625 -1.70125 3.23375 -1 3 C-0.67 2.01 -0.34 1.02 0 0 Z " fill="#2E344C" transform="translate(217,51)"/>
<path d="M0 0 C2.68495774 4.02743661 2.57173628 7.26867516 2 12 C0.5 15.0625 0.5 15.0625 -1 17 C-3 16 -3 16 -4 13 C-5.32 13.33 -6.64 13.66 -8 14 C-8 14.66 -8 15.32 -8 16 C-9.65 15.67 -11.3 15.34 -13 15 C-12.21625 14.443125 -11.4325 13.88625 -10.625 13.3125 C-7.91295142 10.92331435 -7.03866457 9.39926587 -6 6 C-5.34 7.32 -4.68 8.64 -4 10 C-2.35 10 -0.7 10 1 10 C0.67 6.7 0.34 3.4 0 0 Z " fill="#3C4455" transform="translate(297,41)"/>
<path d="M0 0 C1.3303125 0.4021875 1.3303125 0.4021875 2.6875 0.8125 C3.0175 2.7925 3.3475 4.7725 3.6875 6.8125 C-4.88392857 7.09821429 -4.88392857 7.09821429 -8.3125 4.8125 C-4.12788462 -0.23365385 -4.12788462 -0.23365385 0 0 Z " fill="#2E3547" transform="translate(130.3125,55.1875)"/>
<path d="M0 0 C0.99 1.32 1.98 2.64 3 4 C2.34 4 1.68 4 1 4 C1.20625 4.7425 1.4125 5.485 1.625 6.25 C2.04408751 9.32330841 1.61949011 10.42786866 0 13 C-0.66 12.67 -1.32 12.34 -2 12 C-2.40729228 9.67843403 -2.74438677 7.3431213 -3 5 C-3.99 6.485 -3.99 6.485 -5 8 C-6.32 8 -7.64 8 -9 8 C-8.67 6.68 -8.34 5.36 -8 4 C-7.34 4 -6.68 4 -6 4 C-4.66216607 3.68521554 -3.32796291 3.35412344 -2 3 C-2 2.34 -2 1.68 -2 1 C-1.34 0.67 -0.68 0.34 0 0 Z " fill="#12192E" transform="translate(221,47)"/>
<path d="M0 0 C0.66 0.33 1.32 0.66 2 1 C2 2.32 2 3.64 2 5 C2.66 5.33 3.32 5.66 4 6 C2.54782324 7.50596108 1.08807139 9.00462104 -0.375 10.5 C-1.18710938 11.3353125 -1.99921875 12.170625 -2.8359375 13.03125 C-5 15 -5 15 -7 15 C-7 13.35 -7 11.7 -7 10 C-5.02 9.67 -3.04 9.34 -1 9 C-1 7.35 -1 5.7 -1 4 C-1.66 3.67 -2.32 3.34 -3 3 C-2.01 2.01 -1.02 1.02 0 0 Z " fill="#AF294B" transform="translate(83,72)"/>
<path d="M0 0 C0.33 0.66 0.66 1.32 1 2 C2.89533342 2.46523063 2.89533342 2.46523063 5.0625 2.625 C6.361875 2.74875 7.66125 2.8725 9 3 C9 3.33 9 3.66 9 4 C2.62694402 4.74507544 -3.58311325 5.10349817 -10 5 C-10.33 4.01 -10.66 3.02 -11 2 C-7.36576791 -0.32590854 -4.22911669 -0.16265833 0 0 Z " fill="#AE548F" transform="translate(248,73)"/>
<path d="M0 0 C1.7316239 0.1437323 3.46698333 0.24574932 5.203125 0.31640625 C6.67265625 0.37924805 6.67265625 0.37924805 8.171875 0.44335938 C9.18765625 0.48267578 10.2034375 0.52199219 11.25 0.5625 C12.796875 0.62727539 12.796875 0.62727539 14.375 0.69335938 C16.9165387 0.79925682 19.45817196 0.90133443 22 1 C22 1.33 22 1.66 22 2 C3.19 2.495 3.19 2.495 -16 3 C-14.68 2.34 -13.36 1.68 -12 1 C-11.67 0.67 -11.34 0.34 -11 0 C-6.90791458 -0.77209159 -3.98015433 -1.03214958 0 0 Z " fill="#C12357" transform="translate(278,72)"/>
<path d="M0 0 C3.08301416 -0.11644156 6.16546123 -0.18732432 9.25 -0.25 C10.12269531 -0.28351563 10.99539063 -0.31703125 11.89453125 -0.3515625 C18.41598332 -0.45112665 18.41598332 -0.45112665 21.609375 2.015625 C22.06828125 2.67046875 22.5271875 3.3253125 23 4 C22.67 4.66 22.34 5.32 22 6 C21.34 6 20.68 6 20 6 C19.67 6.66 19.34 7.32 19 8 C19 7.34 19 6.68 19 6 C18.360625 5.731875 17.72125 5.46375 17.0625 5.1875 C15 4 15 4 14 1 C9.38 1 4.76 1 0 1 C0 0.67 0 0.34 0 0 Z " fill="#E04162" transform="translate(5,3)"/>
<path d="M0 0 C3 2 3 2 3.6875 4.625 C3.790625 5.40875 3.89375 6.1925 4 7 C6.97 7.495 6.97 7.495 10 8 C10 8.99 10 9.98 10 11 C6.7 11 3.4 11 0 11 C-0.38218767 9.34385343 -0.71395102 7.67542976 -1 6 C-0.67 5.67 -0.34 5.34 0 5 C0.04063832 3.33382885 0.042721 1.66611905 0 0 Z " fill="#CA0536" transform="translate(340,49)"/>
<path d="M0 0 C5.75 0.75 5.75 0.75 8 3 C7.67 3.99 7.34 4.98 7 6 C3.04 6 -0.92 6 -5 6 C-5 5.01 -5 4.02 -5 3 C-0.25 1.875 -0.25 1.875 2 3 C2 2.34 2 1.68 2 1 C1.34 0.67 0.68 0.34 0 0 Z " fill="#3267A8" transform="translate(153,81)"/>
<path d="M0 0 C1.16898722 4.09145526 1.24508059 5.54364303 -0.8125 9.375 C-1.534375 10.24125 -2.25625 11.1075 -3 12 C-3.66 12 -4.32 12 -5 12 C-5.66 9.69 -6.32 7.38 -7 5 C-2.25 0 -2.25 0 0 0 Z " fill="#AA1337" transform="translate(90,65)"/>
<path d="M0 0 C0 0.66 0 1.32 0 2 C-2.31 2.66 -4.62 3.32 -7 4 C-6.814375 4.886875 -6.62875 5.77375 -6.4375 6.6875 C-6.01957516 9.85178811 -6.19222258 11.94839642 -7 15 C-7.66 15 -8.32 15 -9 15 C-11.32380952 7.7839599 -11.32380952 7.7839599 -9.8125 4.125 C-6.71386111 0.49211303 -4.63168791 -0.25036151 0 0 Z " fill="#C1214A" transform="translate(347,45)"/>
<path d="M0 0 C2 2 2 2 2.1953125 4.1640625 C2.17210937 4.97617187 2.14890625 5.78828125 2.125 6.625 C2.10695313 7.44226562 2.08890625 8.25953125 2.0703125 9.1015625 C2.03550781 10.04128906 2.03550781 10.04128906 2 11 C-0.6666419 12.33332095 -2.16680303 11.67102033 -5 11 C-5.25 8.75 -5.25 8.75 -5 6 C-3.0625 3.8125 -3.0625 3.8125 -1 2 C-0.67 1.34 -0.34 0.68 0 0 Z " fill="#33374A" transform="translate(268,40)"/>
<path d="M0 0 C3.3 0 6.6 0 10 0 C10 1.32 10 2.64 10 4 C7.24921116 4.91692961 5.64051087 5.10886083 2.8125 5.0625 C0.9253125 5.0315625 0.9253125 5.0315625 -1 5 C-0.67 3.35 -0.34 1.7 0 0 Z " fill="#D00F3C" transform="translate(378,37)"/>
<path d="M0 0 C0 0.33 0 0.66 0 1 C-0.71285156 1.03738281 -1.42570312 1.07476562 -2.16015625 1.11328125 C-8.0993423 1.52095082 -12.69121747 2.28662226 -18 5 C-18 5.66 -18 6.32 -18 7 C-19.65 6.67 -21.3 6.34 -23 6 C-22.34 4.35 -21.68 2.7 -21 1 C-13.98194143 -0.10087193 -7.09434233 -0.09733092 0 0 Z " fill="#7E74A8" transform="translate(206,75)"/>
<path d="M0 0 C0.391875 0.556875 0.78375 1.11375 1.1875 1.6875 C1.785625 2.450625 2.38375 3.21375 3 4 C3.61875 4.9075 4.2375 5.815 4.875 6.75 C9.82855503 10.31655962 15.08860071 9.38947726 21 9 C21 9.66 21 10.32 21 11 C16.02007095 12.24498226 10.60842019 12.91647196 5.6875 11.1875 C2.12564293 8.68100798 1.15690945 7.84160522 0.3125 3.3125 C0.209375 2.219375 0.10625 1.12625 0 0 Z " fill="#AD3B56" transform="translate(37,57)"/>
<path d="M0 0 C3.71795643 1.61111445 5.1675353 3.3350706 7 7 C6.34 7 5.68 7 5 7 C4.67 9.97 4.34 12.94 4 16 C2 13 2 13 2 9 C1.01 8.67 0.02 8.34 -1 8 C-0.67 5.36 -0.34 2.72 0 0 Z " fill="#3C4152" transform="translate(220,40)"/>
<path d="M0 0 C2.31 0.33 4.62 0.66 7 1 C3.83032834 3.79411815 1.56266042 4.45652515 -2.625 4.75 C-4.06746094 4.86601563 -4.06746094 4.86601563 -5.5390625 4.984375 C-8 5 -8 5 -10 4 C-10 3.34 -10 2.68 -10 2 C-6.7 2 -3.4 2 0 2 C0 1.34 0 0.68 0 0 Z " fill="#047EC3" transform="translate(119,87)"/>
<path d="M0 0 C0.33 0.66 0.66 1.32 1 2 C1.99 1.67 2.98 1.34 4 1 C4 4 4 4 1.5 6.6875 C0.675 7.450625 -0.15 8.21375 -1 9 C-1 8.01 -1 7.02 -1 6 C-3.31 6.66 -5.62 7.32 -8 8 C-3.375 2.25 -3.375 2.25 0 0 Z " fill="#438BBD" transform="translate(90,81)"/>
<path d="M0 0 C0 1.98 0 3.96 0 6 C-2.31 6.33 -4.62 6.66 -7 7 C-7 4.69 -7 2.38 -7 0 C-3.86650268 -1.04449911 -3.01031744 -0.93423645 0 0 Z " fill="#141C33" transform="translate(298,45)"/>
<path d="M0 0 C0.66 0 1.32 0 2 0 C2.66 0.99 3.32 1.98 4 3 C6.05003955 4.19232613 6.05003955 4.19232613 8 5 C8 5.66 8 6.32 8 7 C4.7 7 1.4 7 -2 7 C-1.125 2.25 -1.125 2.25 0 0 Z " fill="#2B3143" transform="translate(172,54)"/>
<path d="M0 0 C0 0.66 0 1.32 0 2 C-0.99 2 -1.98 2 -3 2 C-3 1.34 -3 0.68 -3 0 C-10.92 0.495 -10.92 0.495 -19 1 C-19.33 1.99 -19.66 2.98 -20 4 C-20.33 3.01 -20.66 2.02 -21 1 C-16.07960606 -3.92039394 -5.82146251 -3.00462581 0 0 Z " fill="#D3647C" transform="translate(358,37)"/>
<path d="M0 0 C3.63 0 7.26 0 11 0 C10.67 1.32 10.34 2.64 10 4 C6.7 4 3.4 4 0 4 C0 2.66666667 0 1.33333333 0 0 Z " fill="#077EC1" transform="translate(93,91)"/>
<path d="M0 0 C-0.33 0.66 -0.66 1.32 -1 2 C0.65 2.33 2.3 2.66 4 3 C4 3.33 4 3.66 4 4 C2.02 4 0.04 4 -2 4 C-2.33 4.99 -2.66 5.98 -3 7 C-4.32 6.67 -5.64 6.34 -7 6 C-7 4.35 -7 2.7 -7 1 C-4.53721199 -0.231394 -2.7204945 -0.07159196 0 0 Z " fill="#CB2D53" transform="translate(346,37)"/>
<path d="M0 0 C-0.33 1.32 -0.66 2.64 -1 4 C-3.66666667 4 -6.33333333 4 -9 4 C-9 4.66 -9 5.32 -9 6 C-12.47307692 8.10865385 -12.47307692 8.10865385 -15.140625 7.55859375 C-16.06101562 7.28208984 -16.06101562 7.28208984 -17 7 C-6.47328244 0 -6.47328244 0 0 0 Z " fill="#1378B8" transform="translate(89,87)"/>
<path d="M0 0 C1.58206057 0.00667536 3.16410534 0.0186375 4.74609375 0.03515625 C5.55240234 0.03966797 6.35871094 0.04417969 7.18945312 0.04882812 C9.18753131 0.06065107 11.18557158 0.07858711 13.18359375 0.09765625 C13.18359375 0.42765625 13.18359375 0.75765625 13.18359375 1.09765625 C-3.5248345 3.20927356 -3.5248345 3.20927356 -11.81640625 4.09765625 C-12.14640625 3.43765625 -12.47640625 2.77765625 -12.81640625 2.09765625 C-10.765625 1.86979167 -8.71484375 1.64192708 -6.6640625 1.4140625 C-3.33322912 0.84366609 -4.25687451 0.10892719 0 0 Z " fill="#629CC6" transform="translate(145.81640625,86.90234375)"/>
<path d="M0 0 C0.99 0.33 1.98 0.66 3 1 C3.33 2.98 3.66 4.96 4 7 C-1.00932754 10.00559652 -4.32723489 10.29341888 -10 10 C-10 9.67 -10 9.34 -10 9 C-7.69 9 -5.38 9 -3 9 C-3 8.34 -3 7.68 -3 7 C-2.34 7 -1.68 7 -1 7 C-0.67 6.01 -0.34 5.02 0 4 C0.66 3.34 1.32 2.68 2 2 C1.01 1.67 0.02 1.34 -1 1 C-0.67 0.67 -0.34 0.34 0 0 Z " fill="#626777" transform="translate(265,52)"/>
<path d="M0 0 C1.98 0 3.96 0 6 0 C5.34 2.31 4.68 4.62 4 7 C1.69 6.34 -0.62 5.68 -3 5 C-2.34 4.67 -1.68 4.34 -1 4 C-0.34786708 1.97536745 -0.34786708 1.97536745 0 0 Z " fill="#242A3D" transform="translate(240,36)"/>
<path d="M0 0 C3.55780196 0.60990891 6.6828589 1.5783681 10 3 C10 3.99 10 4.98 10 6 C7.03 6 4.06 6 1 6 C0.67 4.02 0.34 2.04 0 0 Z " fill="#EB395C" transform="translate(26,10)"/>
<path d="M0 0 C1.32 0.33 2.64 0.66 4 1 C-1.0731554 4.67803767 -6.52152513 8.36234113 -13 7.6875 C-13.66 7.460625 -14.32 7.23375 -15 7 C-15 6.67 -15 6.34 -15 6 C-14.38511719 5.87882812 -13.77023438 5.75765625 -13.13671875 5.6328125 C-12.32847656 5.46523437 -11.52023438 5.29765625 -10.6875 5.125 C-9.88699219 4.96257812 -9.08648437 4.80015625 -8.26171875 4.6328125 C-5.74698882 4.05521001 -5.74698882 4.05521001 -3 2 C-2.01 2 -1.02 2 0 2 C0 1.34 0 0.68 0 0 Z " fill="#B1536C" transform="translate(72,87)"/>
<path d="M0 0 C2.0937951 0.43319899 4.0910146 1.0294459 6.125 1.6875 C7.053125 1.8421875 7.053125 1.8421875 8 2 C8.66 1.34 9.32 0.68 10 0 C10.33 0.66 10.66 1.32 11 2 C10.01 3.485 10.01 3.485 9 5 C7.0546875 5.29296875 7.0546875 5.29296875 4.875 5.1875 C3.59625 5.125625 2.3175 5.06375 1 5 C0.34 3.68 -0.32 2.36 -1 1 C-0.67 0.67 -0.34 0.34 0 0 Z " fill="#D30334" transform="translate(33,88)"/>
<path d="M0 0 C2 2 2 2 2.046875 3.953125 C1.4566172 8.51985639 0.66464929 12.67191184 -1 17 C-1.33 17 -1.66 17 -2 17 C-1.85978195 14.35375716 -1.71310224 11.70815422 -1.5625 9.0625 C-1.52318359 8.30775391 -1.48386719 7.55300781 -1.44335938 6.77539062 C-1.11328125 1.11328125 -1.11328125 1.11328125 0 0 Z " fill="#AF3E56" transform="translate(93,52)"/>
<path d="M0 0 C4.29 0 8.58 0 13 0 C12.67 1.98 12.34 3.96 12 6 C10.68 6 9.36 6 8 6 C7.690625 5.0409375 7.690625 5.0409375 7.375 4.0625 C6.10461791 1.65074923 6.10461791 1.65074923 2.875 1.25 C1.92625 1.1675 0.9775 1.085 0 1 C0 0.67 0 0.34 0 0 Z " fill="#606AA8" transform="translate(170,78)"/>
<path d="M0 0 C0.66 0 1.32 0 2 0 C2.15886288 8.26086957 2.15886288 8.26086957 1 11 C0.01 11.33 -0.98 11.66 -2 12 C-2.17835515 7.45194365 -1.99785435 4.1205746 0 0 Z " fill="#AC6683" transform="translate(101,60)"/>
<path d="M0 0 C0.33 0 0.66 0 1 0 C1.10815225 1.76949095 1.18566083 3.54087487 1.25 5.3125 C1.29640625 6.29863281 1.3428125 7.28476562 1.390625 8.30078125 C1 11 1 11 -1.015625 12.85546875 C-1.67046875 13.23316406 -2.3253125 13.61085938 -3 14 C-3.66 12.02 -4.32 10.04 -5 8 C-3.35 7.67 -1.7 7.34 0 7 C0 4.69 0 2.38 0 0 Z " fill="#414758" transform="translate(177,32)"/>
<path d="M0 0 C2 3 2 3 2 6 C1.01 6 0.02 6 -1 6 C-1.33 4.68 -1.66 3.36 -2 2 C-3.32 1.67 -4.64 1.34 -6 1 C-5.67 2.32 -5.34 3.64 -5 5 C-5.99 5.495 -5.99 5.495 -7 6 C-7.99 5.34 -8.98 4.68 -10 4 C-9.34 3.67 -8.68 3.34 -8 3 C-7.67 2.01 -7.34 1.02 -7 0 C-4.27584084 -1.36207958 -2.87220643 -0.86166193 0 0 Z " fill="#CF3E60" transform="translate(395,37)"/>
<path d="M0 0 C4.95 0 9.9 0 15 0 C15 0.99 15 1.98 15 3 C12.36 3.66 9.72 4.32 7 5 C7 4.01 7 3.02 7 2 C4.69 1.67 2.38 1.34 0 1 C0 0.67 0 0.34 0 0 Z " fill="#4363A8" transform="translate(158,80)"/>
<path d="M0 0 C2.33294775 -0.04241723 4.66702567 -0.04092937 7 0 C8 1 8 1 8.0625 4.0625 C8.041875 5.031875 8.02125 6.00125 8 7 C6.35 7.33 4.7 7.66 3 8 C3 6 3 6 5 3.875 C5.66 3.25625 6.32 2.6375 7 2 C4.69 2 2.38 2 0 2 C0 1.34 0 0.68 0 0 Z " fill="#CA3C5E" transform="translate(382,49)"/>
<path d="M0 0 C0.33 0 0.66 0 1 0 C1.02684679 2.64590014 1.04676357 5.29153096 1.0625 7.9375 C1.07087891 8.69224609 1.07925781 9.44699219 1.08789062 10.22460938 C1.09652441 12.14994313 1.05224333 14.07535581 1 16 C0 17 0 17 -3.5625 17.0625 C-4.696875 17.041875 -5.83125 17.02125 -7 17 C-7 16.67 -7 16.34 -7 16 C-5.35 15.67 -3.7 15.34 -2 15 C-1.34 10.05 -0.68 5.1 0 0 Z " fill="#DD99A7" transform="translate(360,44)"/>
<path d="M0 0 C1.93559313 -0.13504138 3.873872 -0.23201129 5.8125 -0.3125 C6.89144531 -0.37050781 7.97039063 -0.42851563 9.08203125 -0.48828125 C12 0 12 0 13.88671875 2.51953125 C14.25410156 3.33808594 14.62148438 4.15664062 15 5 C12 4 9 3 6 2 C3.45809998 1.7499227 3.45809998 1.7499227 1 2 C0.34 2.66 -0.32 3.32 -1 4 C-0.67 2.68 -0.34 1.36 0 0 Z " fill="#BA0B32" transform="translate(7,4)"/>
<path d="M0 0 C2.31 0 4.62 0 7 0 C6.67 1.32 6.34 2.64 6 4 C2.7 4 -0.6 4 -4 4 C-2.68 3.34 -1.36 2.68 0 2 C0 1.34 0 0.68 0 0 Z " fill="#7A478C" transform="translate(206,75)"/>
<path d="M0 0 C2.07324138 3.10986207 2.27392186 3.89108387 2.25 7.4375 C2.25515625 8.19933594 2.2603125 8.96117187 2.265625 9.74609375 C1.9747292 12.21443018 1.22975656 13.857686 0 16 C-3 12.25 -3 12.25 -3 10 C-1.68 10 -0.36 10 1 10 C0.67 6.7 0.34 3.4 0 0 Z " fill="#7A7486" transform="translate(297,41)"/>
<path d="M0 0 C0.66 0.33 1.32 0.66 2 1 C1.67 2.32 1.34 3.64 1 5 C0.67 4.34 0.34 3.68 0 3 C-2.52733235 2.34444881 -2.52733235 2.34444881 -5 2 C-4.79375 2.78375 -4.5875 3.5675 -4.375 4.375 C-4.189375 5.674375 -4.189375 5.674375 -4 7 C-4.66 7.66 -5.32 8.32 -6 9 C-6.66 6.36 -7.32 3.72 -8 1 C-5.26094655 -0.36952673 -3.02912668 -0.12621361 0 0 Z " fill="#CF4365" transform="translate(305,35)"/>
<path d="M0 0 C0.99 0 1.98 0 3 0 C2.67 3.63 2.34 7.26 2 11 C1.67 9.68 1.34 8.36 1 7 C0.67 7.66 0.34 8.32 0 9 C-0.66 9 -1.32 9 -2 9 C-1.51421457 5.87709365 -1.0013988 3.00419641 0 0 Z " fill="#A70229" transform="translate(89,58)"/>
<path d="M0 0 C0.66 0.33 1.32 0.66 2 1 C2.38749213 3.32495277 2.71758117 5.6599583 3 8 C3.33 8.99 3.66 9.98 4 11 C3.34 11.66 2.68 12.32 2 13 C-1.62870159 4.738041 -1.62870159 4.738041 0 0 Z " fill="#E2546D" transform="translate(6,59)"/>
<path d="M0 0 C2.97 0 5.94 0 9 0 C7.02 0.99 7.02 0.99 5 2 C5.99 2.66 6.98 3.32 8 4 C1.375 4.25 1.375 4.25 -2 2 C-1.34 2 -0.68 2 0 2 C0 1.34 0 0.68 0 0 Z " fill="#A93373" transform="translate(248,72)"/>
<path d="M0 0 C3.96 0.33 7.92 0.66 12 1 C11.34 2.32 10.68 3.64 10 5 C6.33118845 4.29445932 3.29549466 2.72264494 0 1 C0 0.67 0 0.34 0 0 Z " fill="#4D79BA" transform="translate(154,80)"/>
<path d="M0 0 C2.31 0 4.62 0 7 0 C7 1.32 7 2.64 7 4 C7.99 4.33 8.98 4.66 10 5 C10 5.66 10 6.32 10 7 C7.69 7 5.38 7 3 7 C3.99 6.34 4.98 5.68 6 5 C3.9927092 1.9890638 3.16115776 1.36983503 0 0 Z " fill="#BC8AB6" transform="translate(217,73)"/>
<path d="M0 0 C1.32 0.33 2.64 0.66 4 1 C4.33 2.65 4.66 4.3 5 6 C2.69 6 0.38 6 -2 6 C-1.34 4.02 -0.68 2.04 0 0 Z " fill="#131A34" transform="translate(129,55)"/>
<path d="M0 0 C1.4540625 0.0309375 1.4540625 0.0309375 2.9375 0.0625 C1.9475 0.7225 0.9575 1.3825 -0.0625 2.0625 C-0.3925 2.7225 -0.7225 3.3825 -1.0625 4.0625 C-1.7225 4.7225 -2.3825 5.3825 -3.0625 6.0625 C-2.7325 6.7225 -2.4025 7.3825 -2.0625 8.0625 C-3.0525 8.3925 -4.0425 8.7225 -5.0625 9.0625 C-4.06477273 0.08295455 -4.06477273 0.08295455 0 0 Z " fill="#454857" transform="translate(241.0625,34.9375)"/>
<path d="M0 0 C0 0.99 0 1.98 0 3 C-2.31 3.66 -4.62 4.32 -7 5 C-7.33 3.68 -7.66 2.36 -8 1 C-5.29120665 -0.35439668 -2.99066732 -0.06501451 0 0 Z " fill="#363946" transform="translate(213,35)"/>
<path d="M0 0 C-0.33 0.99 -0.66 1.98 -1 3 C-3.64 2.67 -6.28 2.34 -9 2 C-9 1.34 -9 0.68 -9 0 C-5.93109813 -1.53445094 -3.29905734 -0.54984289 0 0 Z " fill="#E7264D" transform="translate(36,16)"/>
<path d="M0 0 C0.99 0.99 1.98 1.98 3 3 C-0.63 3 -4.26 3 -8 3 C-8 2.34 -8 1.68 -8 1 C-4.99825776 -0.00058075 -3.12414314 -0.31241431 0 0 Z " fill="#327FB5" transform="translate(67,97)"/>
<path d="M0 0 C1.45947705 0.06006078 2.91779272 0.1488689 4.375 0.25 C5.59316406 0.31960937 5.59316406 0.31960937 6.8359375 0.390625 C9 1 9 1 10.2890625 3.046875 C10.64097656 4.01367188 10.64097656 4.01367188 11 5 C6.87248551 4.39301257 3.6678852 2.96189209 0 1 C0 0.67 0 0.34 0 0 Z " fill="#D25370" transform="translate(24,89)"/>
<path d="M0 0 C0.66 0 1.32 0 2 0 C2 2.31 2 4.62 2 7 C5.3 7 8.6 7 12 7 C12 7.33 12 7.66 12 8 C8.04 8 4.08 8 0 8 C-1.09658936 4.71023192 -0.79953138 3.28696233 0 0 Z " fill="#595D6A" transform="translate(156,34)"/>
<path d="M0 0 C3.125 -0.1875 3.125 -0.1875 6 0 C6 1.32 6 2.64 6 4 C3.36 3.67 0.72 3.34 -2 3 C-1.34 2.01 -0.68 1.02 0 0 Z " fill="#CE0535" transform="translate(346,37)"/>
<path d="M0 0 C1.2065625 0.0309375 1.2065625 0.0309375 2.4375 0.0625 C2.4375 1.0525 2.4375 2.0425 2.4375 3.0625 C-2.5125 3.0625 -7.4625 3.0625 -12.5625 3.0625 C-10.5625 1.0625 -10.5625 1.0625 -7 1 C-5.865625 1.020625 -4.73125 1.04125 -3.5625 1.0625 C-2.5625 0.0625 -2.5625 0.0625 0 0 Z " fill="#B10830" transform="translate(56.5625,91.9375)"/>
<path d="M0 0 C2.50037734 2.17424117 3.43628586 3.73045798 4 7 C2.35 7 0.7 7 -1 7 C-2 4 -2 4 -1.0625 1.8125 C-0.5365625 0.9153125 -0.5365625 0.9153125 0 0 Z M-4 8 C-2 9 -2 9 -2 9 Z " fill="#E51E44" transform="translate(65,57)"/>
<path d="M0 0 C0.33 0.66 0.66 1.32 1 2 C1.66 2 2.32 2 3 2 C3.33 1.34 3.66 0.68 4 0 C4.66 0.33 5.32 0.66 6 1 C6 1.99 6 2.98 6 4 C3.36 4 0.72 4 -2 4 C-2 3.01 -2 2.02 -2 1 C-1.34 0.67 -0.68 0.34 0 0 Z " fill="#292C40" transform="translate(232,57)"/>
<path d="M0 0 C1.32 0.33 2.64 0.66 4 1 C4.33 2.98 4.66 4.96 5 7 C3.35 7 1.7 7 0 7 C0.66 5.02 1.32 3.04 2 1 C1.34 0.67 0.68 0.34 0 0 Z " fill="#252D43" transform="translate(290,53)"/>
<path d="M0 0 C0 0.66 0 1.32 0 2 C-3.63 2.33 -7.26 2.66 -11 3 C-9 0 -9 0 -6.625 -0.75 C-4.07496 -0.99286095 -2.40864929 -0.8028831 0 0 Z " fill="#6D83BC" transform="translate(171,84)"/>
<path d="M0 0 C0.99 0 1.98 0 3 0 C3.33 1.65 3.66 3.3 4 5 C1.33333333 5 -1.33333333 5 -4 5 C-3.34 4.01 -2.68 3.02 -2 2 C-1.34 2 -0.68 2 0 2 C0 1.34 0 0.68 0 0 Z " fill="#E51D46" transform="translate(58,66)"/>
<path d="M0 0 C2 2 2 2 2.125 4.625 C2.08375 5.40875 2.0425 6.1925 2 7 C3.32 7.33 4.64 7.66 6 8 C6 8.33 6 8.66 6 9 C4.02 9 2.04 9 0 9 C0 6.03 0 3.06 0 0 Z " fill="#181D30" transform="translate(273,51)"/>
<path d="M0 0 C0.28875 0.61875 0.5775 1.2375 0.875 1.875 C1.93720042 4.13325765 1.93720042 4.13325765 4 6 C3.625 8.625 3.625 8.625 3 11 C2.34 11 1.68 11 1 11 C-1.125 3.375 -1.125 3.375 0 0 Z " fill="#CF4767" transform="translate(337,49)"/>
<path d="M0 0 C1.88095298 3.17410816 2.09356617 5.3509193 2 9 C2.33 9.99 2.66 10.98 3 12 C2.67 12.66 2.34 13.32 2 14 C-0.66464729 8.77729131 -1.32854177 5.9180497 0 0 Z " fill="#757D89" transform="translate(245,43)"/>
<path d="M0 0 C0.33 1.32 0.66 2.64 1 4 C-0.65 4.66 -2.3 5.32 -4 6 C-4.66 4.68 -5.32 3.36 -6 2 C-3 0 -3 0 0 0 Z " fill="#222941" transform="translate(258,37)"/>
<path d="M0 0 C1.9453125 -0.29296875 1.9453125 -0.29296875 4.125 -0.1875 C5.40375 -0.125625 6.6825 -0.06375 8 0 C8 0.66 8 1.32 8 2 C4.7 2.33 1.4 2.66 -2 3 C-1.34 2.01 -0.68 1.02 0 0 Z " fill="#479BC4" transform="translate(92,95)"/>
<path d="M0 0 C0.33 0.66 0.66 1.32 1 2 C3.64 2 6.28 2 9 2 C9 2.33 9 2.66 9 3 C6.36 3.33 3.72 3.66 1 4 C0.67 5.32 0.34 6.64 0 8 C-0.66 6.02 -1.32 4.04 -2 2 C-1.34 1.34 -0.68 0.68 0 0 Z " fill="#C10B38" transform="translate(343,47)"/>
<path d="M0 0 C-2.625 4.875 -2.625 4.875 -6 6 C-6 4.02 -6 2.04 -6 0 C-3 -1 -3 -1 0 0 Z " fill="#141D37" transform="translate(230,40)"/>
<path d="M0 0 C4.95 0 9.9 0 15 0 C15.33 0.99 15.66 1.98 16 3 C15.01 3 14.02 3 13 3 C13 2.34 13 1.68 13 1 C8.71 1 4.42 1 0 1 C0 0.67 0 0.34 0 0 Z " fill="#1771B0" transform="translate(131,84)"/>
<path d="M0 0 C0.33 0.99 0.66 1.98 1 3 C-2.26760563 8.63380282 -2.26760563 8.63380282 -5 10 C-4.75 7.125 -4.75 7.125 -4 4 C-1.9375 2.625 -1.9375 2.625 0 2 C0 1.34 0 0.68 0 0 Z " fill="#4C5261" transform="translate(144,50)"/>
<path d="M0 0 C3 1 3 1 4.1875 3.0625 C4.455625 3.701875 4.72375 4.34125 5 5 C3.35 5 1.7 5 0 5 C-0.5625 3.0625 -0.5625 3.0625 -1 1 C-0.67 0.67 -0.34 0.34 0 0 Z " fill="#13192E" transform="translate(284,56)"/>
<path d="M0 0 C-1 2 -1 2 -3.375 2.8125 C-6 3 -6 3 -7.8125 1.5625 C-8.204375 1.046875 -8.59625 0.53125 -9 0 C-5.93109813 -1.53445094 -3.29905734 -0.54984289 0 0 Z " fill="#6C529B" transform="translate(200,78)"/>
<path d="M0 0 C-0.66 1.65 -1.32 3.3 -2 5 C-3.32 5 -4.64 5 -6 5 C-6 4.01 -6 3.02 -6 2 C-3 0 -3 0 0 0 Z " fill="#5D5791" transform="translate(97,78)"/>
<path d="M0 0 C0.33 0.99 0.66 1.98 1 3 C-4.75 4.125 -4.75 4.125 -7 3 C-7 2.34 -7 1.68 -7 1 C-4.53721199 -0.231394 -2.7204945 -0.07159196 0 0 Z " fill="#954890" transform="translate(222,75)"/>
<path d="M0 0 C0.98120464 3.05263664 0.98120464 4.94736336 0 8 C-1.65 8.33 -3.3 8.66 -5 9 C-4.360625 8.071875 -3.72125 7.14375 -3.0625 6.1875 C-0.91377907 3.15780057 -0.91377907 3.15780057 0 0 Z " fill="#E46D89" transform="translate(63,57)"/>
<path d="M0 0 C1.98 0.99 3.96 1.98 6 3 C5.34 3.66 4.68 4.32 4 5 C1.375 4.625 1.375 4.625 -1 4 C-1 1 -1 1 0 0 Z " fill="#1F2438" transform="translate(252,56)"/>
<path d="M0 0 C1.98 0 3.96 0 6 0 C5.67 1.32 5.34 2.64 5 4 C3.35 3.67 1.7 3.34 0 3 C0 2.01 0 1.02 0 0 Z " fill="#474C5F" transform="translate(274,24)"/>
<path d="M0 0 C0.33 0.66 0.66 1.32 1 2 C0.67 2.99 0.34 3.98 0 5 C-0.66 5 -1.32 5 -2 5 C-2 5.99 -2 6.98 -2 8 C-2.99 8.33 -3.98 8.66 -5 9 C-3.90931332 5.22454612 -3.0916909 2.52956528 0 0 Z " fill="#E67487" transform="translate(71,9)"/>
<path d="M0 0 C0.33 0.66 0.66 1.32 1 2 C-0.28610235 4.5722047 -1.33393981 5.00974907 -4 6 C-5.32 5.67 -6.64 5.34 -8 5 C-4.04 2.525 -4.04 2.525 0 0 Z " fill="#5B9BCA" transform="translate(80,89)"/>
<path d="M0 0 C0.66 0.33 1.32 0.66 2 1 C2 1.66 2 2.32 2 3 C3.32 3.66 4.64 4.32 6 5 C3.69 5 1.38 5 -1 5 C-1.66 3.68 -2.32 2.36 -3 1 C-2.01 0.67 -1.02 0.34 0 0 Z " fill="#867BB2" transform="translate(190,78)"/>
<path d="M0 0 C0.99 0.33 1.98 0.66 3 1 C2.67 2.32 2.34 3.64 2 5 C0.02 5.33 -1.96 5.66 -4 6 C-2.68 4.02 -1.36 2.04 0 0 Z " fill="#9C6E9A" transform="translate(95,74)"/>
<path d="M0 0 C0.66 0.66 1.32 1.32 2 2 C0.68 3.32 -0.64 4.64 -2 6 C-2.99 5.67 -3.98 5.34 -5 5 C-4.67 3.68 -4.34 2.36 -4 1 C-3.01 1 -2.02 1 -1 1 C-0.67 0.67 -0.34 0.34 0 0 Z " fill="#F4274E" transform="translate(13,62)"/>
<path d="M0 0 C0.99 0 1.98 0 3 0 C3.93065133 2.60582371 4.14917407 3.64198224 3.0625 6.25 C2.5365625 7.11625 2.5365625 7.11625 2 8 C0.74335022 5.09399739 0 3.20395416 0 0 Z " fill="#4A4E5E" transform="translate(209,47)"/>
<path d="M0 0 C0.66 0.33 1.32 0.66 2 1 C0.25 6.75 0.25 6.75 -2 9 C-2.6875 7.3125 -2.6875 7.3125 -3 5 C-1.5625 2.25 -1.5625 2.25 0 0 Z " fill="#C60832" transform="translate(85,59)"/>
<path d="M0 0 C0.33 0.66 0.66 1.32 1 2 C3.02463255 2.65213292 3.02463255 2.65213292 5 3 C4.01 3.99 3.02 4.98 2 6 C1.01 5.67 0.02 5.34 -1 5 C-0.67 3.35 -0.34 1.7 0 0 Z " fill="#1D223C" transform="translate(252,44)"/>
<path d="M0 0 C1.98 0 3.96 0 6 0 C5.625 2.4375 5.625 2.4375 5 5 C4.01 5.495 4.01 5.495 3 6 C3 4.35 3 2.7 3 1 C2.01 1.33 1.02 1.66 0 2 C0 1.34 0 0.68 0 0 Z " fill="#C40E3C" transform="translate(331,37)"/>
<path d="M0 0 C2.475 0.495 2.475 0.495 5 1 C5 1.99 5 2.98 5 4 C3.35 4 1.7 4 0 4 C0 2.68 0 1.36 0 0 Z " fill="#F64361" transform="translate(26,10)"/>
<path d="M0 0 C0 0.66 0 1.32 0 2 C-2.31 2.33 -4.62 2.66 -7 3 C-7 2.01 -7 1.02 -7 0 C-3.86650268 -1.04449911 -3.01031744 -0.93423645 0 0 Z " fill="#256EB8" transform="translate(155,84)"/>
<path d="M0 0 C0.33 0.66 0.66 1.32 1 2 C1.99 1.67 2.98 1.34 4 1 C4 1.99 4 2.98 4 4 C3.34 4.66 2.68 5.32 2 6 C2 5.01 2 4.02 2 3 C0.35 3.33 -1.3 3.66 -3 4 C-3 3.34 -3 2.68 -3 2 C-2.01 1.34 -1.02 0.68 0 0 Z " fill="#7C9DC7" transform="translate(90,81)"/>
<path d="M0 0 C1.258125 -0.020625 2.51625 -0.04125 3.8125 -0.0625 C4.52019531 -0.07410156 5.22789062 -0.08570312 5.95703125 -0.09765625 C8 0 8 0 11 1 C10.67 1.66 10.34 2.32 10 3 C8.35 3 6.7 3 5 3 C5 2.67 5 2.34 5 2 C3.35 1.67 1.7 1.34 0 1 C0 0.67 0 0.34 0 0 Z " fill="#C280B5" transform="translate(225,72)"/>
<path d="M0 0 C2.97 0.495 2.97 0.495 6 1 C6 4 6 4 5 6 C4.34 4.68 3.68 3.36 3 2 C2.34 2 1.68 2 1 2 C0.67 2.66 0.34 3.32 0 4 C0 2.68 0 1.36 0 0 Z " fill="#475263" transform="translate(168,45)"/>
<path d="M0 0 C1.4540625 0.0309375 1.4540625 0.0309375 2.9375 0.0625 C2.9375 0.7225 2.9375 1.3825 2.9375 2.0625 C1.2875 2.7225 -0.3625 3.3825 -2.0625 4.0625 C-2.0625 3.4025 -2.0625 2.7425 -2.0625 2.0625 C-2.7225 1.7325 -3.3825 1.4025 -4.0625 1.0625 C-3.0625 0.0625 -3.0625 0.0625 0 0 Z " fill="#757983" transform="translate(119.0625,24.9375)"/>
<path d="M0 0 C0.66 0.99 1.32 1.98 2 3 C1.34 3.66 0.68 4.32 0 5 C-0.69748583 6.31747324 -1.36959957 7.64914193 -2 9 C-2 6.36 -2 3.72 -2 1 C-1.34 0.67 -0.68 0.34 0 0 Z " fill="#E34965" transform="translate(67,17)"/>
<path d="M0 0 C0.99 0.495 0.99 0.495 2 1 C2 1.66 2 2.32 2 3 C2.66 3 3.32 3 4 3 C4.33 4.32 4.66 5.64 5 7 C3.35 7 1.7 7 0 7 C0.33 6.01 0.66 5.02 1 4 C0.61067144 1.85744207 0.61067144 1.85744207 0 0 Z " fill="#ED7C94" transform="translate(31,6)"/>
</svg>
